<svg width="40" height="44" viewBox="0 0 40 44" fill="none" xmlns="http://www.w3.org/2000/svg">
<path d="M19.9898 42.3808L19.2682 43.0732L19.9605 43.7947L20.6821 43.1024L19.9898 42.3808ZM38.7649 25.7527C39.1634 25.3703 39.1765 24.7373 38.7941 24.3387C38.4117 23.9402 37.7787 23.9271 37.3802 24.3095L38.7649 25.7527ZM2.14345 22.3362C1.76109 21.9377 1.12806 21.9246 0.729543 22.307C0.331026 22.6893 0.317932 23.3224 0.700296 23.7209L2.14345 22.3362ZM19.3703 -0.00897683L18.9898 42.3719L20.9897 42.3898L21.3702 0.00897683L19.3703 -0.00897683ZM20.6821 43.1024L38.7649 25.7527L37.3802 24.3095L19.2975 41.6592L20.6821 43.1024ZM20.7114 41.6885L2.14345 22.3362L0.700296 23.7209L19.2682 43.0732L20.7114 41.6885Z" fill="white"/>
</svg>
