<svg width="512" height="512" viewBox="0 0 512 512" fill="none" xmlns="http://www.w3.org/2000/svg">
<path d="M211.968 0H300.032L310.272 3.072L318.464 9.216L324.608 16.384L328.704 25.6L337.92 65.536V68.608L344.064 70.656L363.52 80.896L375.808 89.088L380.928 90.112L402.432 83.968L418.816 78.848H437.248L447.488 82.944L455.68 88.064L463.872 99.328L466.944 104.448L470.016 111.616L480.256 129.024L489.472 144.384L499.712 162.816L501.76 169.984V184.32L497.664 195.584L493.568 201.728L484.352 210.944L473.088 220.16L460.8 232.448L461.824 249.856V262.144L460.8 279.552L475.136 293.888L486.4 303.104L495.616 312.32L500.736 323.584L501.76 327.68V342.016L497.664 353.28L481.28 381.952L475.136 391.168L467.968 403.456L464.896 410.624L457.728 421.888L452.608 425.984L441.344 432.128L437.248 433.152H419.84L393.216 424.96L376.832 420.864V422.912L362.496 431.104L352.256 437.248L339.968 443.392H337.92L335.872 455.68L327.68 489.472L321.536 499.712L312.32 507.904L309.248 509.952L300.032 512H211.968L201.728 508.928L192.512 501.76L185.344 490.496L176.128 452.608L173.056 443.392L156.672 435.2L141.312 425.984L135.168 421.888L128 422.912L100.352 431.104L93.1839 433.152H75.7759L64.5119 429.056L56.3199 422.912L50.1759 414.72L45.0559 406.528L41.9839 399.36L31.7439 381.952L21.5039 364.544L13.3119 350.208L11.2639 343.04V325.632L16.3839 313.344L24.5759 304.128L33.7919 296.96L44.0319 287.744L50.1759 280.576H52.2239L51.1999 270.336V231.424L45.0559 226.304L40.9599 221.184L32.7679 214.016L22.5279 205.824L15.3599 196.608L11.2639 186.368V167.936L16.3839 155.648L29.6959 133.12L37.8879 119.808L44.0319 109.568L47.1039 102.4L53.2479 92.16L61.4399 84.992L71.6799 79.872L74.7519 78.848H93.1839L119.808 87.04L132.096 90.112L136.192 89.088L156.672 76.8L174.08 67.584L184.32 24.576L189.44 14.336L193.536 9.216L203.776 2.048L211.968 0ZM221.184 32.768L217.088 34.816L210.944 59.392L208.896 72.704L204.8 88.064L199.68 94.208L181.248 102.4L167.936 109.568L151.552 121.856L147.456 124.928L143.36 125.952H132.096L119.808 122.88L88.0639 112.64H81.9199V114.688H79.8719L74.7519 124.928L66.5599 138.24L51.1999 164.864L45.0559 174.08V179.2L61.4399 194.56L71.6799 203.776L81.9199 212.992L82.9439 215.04H84.9919L86.0159 220.16V233.472L84.9919 243.712V269.312L86.0159 278.528V291.84L81.9199 299.008L66.5599 313.344L54.2719 324.608L45.0559 332.8V337.92L52.2239 349.184L67.5839 375.808L76.7999 391.168L81.9199 399.36L91.1359 398.336L125.952 387.072L132.096 386.048H143.36L148.48 388.096L163.84 399.36L175.104 406.528L194.56 415.744L200.704 418.816L204.8 423.936L209.92 443.392L211.968 456.704L217.088 477.184L221.184 479.232H291.84L295.936 476.16L301.056 455.68L303.104 442.368L307.2 424.96L310.272 419.84L322.56 413.696L339.968 405.504L357.376 393.216L365.568 387.072L369.664 386.048H380.928L396.288 390.144L428.032 400.384L433.152 396.288L437.248 388.096V386.048H439.296L449.536 367.616L462.848 345.088L467.968 336.896L466.944 331.776L458.752 324.608L442.368 309.248L432.128 300.032L428.032 294.912L425.984 288.768L428.032 263.168V248.832L425.984 223.232L429.056 216.064L436.224 207.872L449.536 195.584L462.848 183.296L467.968 178.176L466.944 173.056L458.752 159.744L443.392 133.12L435.2 119.808L429.056 111.616L415.744 115.712L386.048 124.928L380.928 125.952H369.664L362.496 122.88L352.256 114.688L337.92 105.472L318.464 96.256L312.32 93.184L308.224 89.088L303.104 69.632L299.008 47.104L295.936 35.84L291.84 32.768H221.184Z" fill="black"/>
<path d="M243.712 148.48H268.288L288.768 152.576L301.056 157.696L314.368 164.864L324.608 172.032L332.8 179.2L339.968 187.392L349.184 200.704L358.4 220.16L362.496 234.496L363.52 241.664V270.336L360.448 285.696L355.328 299.008L346.112 316.416L339.968 324.608L332.8 332.8L324.608 339.968L309.248 350.208L291.84 358.4L275.456 362.496L268.288 363.52H243.712L224.256 359.424L211.968 354.304L196.608 346.112L184.32 336.896L176.128 329.728L164.864 313.344L155.648 295.936L150.528 278.528L148.48 264.192V247.808L151.552 228.352L157.696 211.968L165.888 196.608L175.104 184.32L183.296 175.104L201.728 162.816L218.112 154.624L231.424 150.528L243.712 148.48ZM247.808 182.272L231.424 186.368L215.04 194.56L210.944 197.632V199.68L205.824 201.728L199.68 208.896V210.944L196.608 211.968L188.416 226.304L183.296 242.688L182.272 249.856V262.144L185.344 277.504L191.488 291.84L197.632 301.056H199.68L201.728 306.176L208.896 312.32H210.944L211.968 315.392L226.304 323.584L241.664 328.704L247.808 329.728H265.216L281.6 325.632L297.984 317.44L309.248 307.2L316.416 299.008L322.56 288.768L327.68 276.48L329.728 267.264V244.736L326.656 232.448L318.464 216.064L309.248 204.8L297.984 194.56L281.6 186.368L265.216 182.272H247.808Z" fill="black"/>
</svg>
