<svg width="512" height="512" viewBox="0 0 512 512" fill="none" xmlns="http://www.w3.org/2000/svg">
<path d="M235.52 47.104H276.48L301.056 51.2L320.512 56.32L336.896 62.464L353.28 70.656L369.664 79.872L384 90.112L395.264 99.328L402.432 106.496L407.552 111.616L415.744 119.808L424.96 132.096L435.2 147.456L447.488 171.008L453.632 185.344L459.776 205.824L463.872 227.328L464.896 235.52V276.48L460.8 301.056L455.68 320.512L449.536 336.896L438.272 359.424L428.032 375.808L417.792 389.12L408.576 399.36L404.48 404.48L396.288 411.648L387.072 419.84L372.736 430.08L357.376 439.296L334.848 450.56L310.272 458.752L284.672 463.872L276.48 464.896H235.52L210.944 460.8L191.488 455.68L175.104 449.536L152.576 438.272L136.192 428.032L122.88 417.792L110.592 406.528L105.472 401.408L97.28 393.216L87.04 379.904L76.8 364.544L64.512 340.992L58.368 326.656L52.224 306.176L48.128 284.672L47.104 276.48V235.52L51.2 210.944L56.32 191.488L62.464 175.104L70.656 158.72L79.872 142.336L87.04 132.096L98.304 117.76L106.496 109.568L111.616 104.448L119.808 96.256L132.096 87.04L147.456 76.8L163.84 67.584L185.344 58.368L205.824 52.224L227.328 48.128L235.52 47.104ZM254.976 80.896L224.256 82.944L204.8 88.064L185.344 95.232L167.936 104.448L151.552 115.712L135.168 129.024L125.952 138.24L112.64 155.648L104.448 167.936L94.208 187.392L84.992 215.04L82.944 224.256L80.896 257.024L82.944 287.744L88.064 307.2L95.232 326.656L103.424 343.04H105.472L107.52 348.16L114.688 359.424L129.024 376.832L138.24 386.048L155.648 399.36L166.912 406.528H168.96V408.576L192.512 419.84L215.04 427.008L224.256 429.056L257.024 431.104L287.744 429.056L307.2 423.936L326.656 416.768L344.064 407.552L360.448 396.288L376.832 382.976L386.048 373.76L399.36 356.352L407.552 344.064L416.768 326.656L423.936 307.2L429.056 287.744L431.104 254.976L429.056 224.256L423.936 204.8L416.768 185.344L408.576 168.96H406.528L404.48 163.84L397.312 152.576L388.096 141.312L380.928 132.096L369.664 122.88L356.352 112.64L344.064 104.448L324.608 94.208L304.128 87.04L287.744 82.944L254.976 80.896Z" fill="black"/>
<path d="M249.856 111.616H262.144L268.288 115.712L272.384 121.856V140.288L281.6 141.312L294.912 146.432L308.224 154.624L318.464 163.84L327.68 174.08L333.824 185.344L336.896 192.512V204.8L333.824 210.944L326.656 215.04L317.44 216.064L309.248 212.992L303.104 205.824L299.008 194.56L289.792 184.32L280.576 178.176L272.384 175.104L273.408 241.664L295.936 246.784L310.272 253.952L319.488 261.12L327.68 270.336L334.848 284.672L337.92 296.96V314.368L333.824 329.728L328.704 339.968L320.512 350.208L312.32 358.4L299.008 366.592L288.768 370.688L278.528 372.736H272.384V390.144L268.288 396.288L262.144 400.384H249.856L243.712 396.288L239.616 390.144V371.712L230.4 370.688L217.088 365.568L203.776 357.376L193.536 348.16L184.32 337.92L178.176 326.656L175.104 318.464V307.2L178.176 301.056L185.344 296.96L194.56 295.936L202.752 299.008L208.896 306.176L212.992 317.44L222.208 327.68L232.448 333.824L239.616 336.896L238.592 270.336L216.064 265.216L201.728 258.048L192.512 250.88L184.32 241.664L177.152 227.328L174.08 215.04V197.632L178.176 182.272L183.296 172.032L191.488 161.792L199.68 153.6L212.992 145.408L223.232 141.312L233.472 139.264H239.616V121.856L243.712 115.712L249.856 111.616ZM236.544 173.056L225.28 177.152L215.04 186.368L210.944 192.512L208.896 200.704V211.968L211.968 221.184L216.064 226.304L223.232 231.424L233.472 234.496L239.616 235.52V173.056H236.544ZM272.384 276.48V338.944L281.6 336.896L290.816 331.776L297.984 324.608L301.056 319.488L303.104 311.296V300.032L300.032 290.816L295.936 285.696L288.768 280.576L278.528 277.504L272.384 276.48Z" fill="black"/>
</svg>
