<svg width="512" height="512" viewBox="0 0 512 512" fill="none" xmlns="http://www.w3.org/2000/svg">
<path d="M19.456 84.992H492.544L501.76 89.088L508.928 95.232L512 103.424V408.576L508.928 415.744L501.76 423.936L492.544 427.008H19.456L10.24 422.912L3.072 416.768L0 408.576V103.424L4.096 95.232L10.24 88.064L19.456 84.992ZM39.936 105.472L45.056 110.592L60.416 122.88L70.656 130.048L80.896 137.216H82.944L83.968 140.288L103.424 154.624L124.928 171.008L136.192 179.2L155.648 193.536L168.96 203.776L183.296 215.04L190.464 219.136L208.896 233.472H210.944L211.968 236.544L223.232 244.736L242.688 259.072L252.928 262.144L263.168 261.12L272.384 257.024L293.888 240.64L301.056 235.52V233.472L305.152 231.424L324.608 217.088L331.776 212.992L343.04 203.776L361.472 189.44L380.928 175.104L387.072 171.008L405.504 156.672L424.96 142.336L435.2 134.144L445.44 126.976L464.896 112.64L472.064 106.496V105.472H39.936ZM20.48 119.808V389.12L22.528 388.096V386.048L25.6 385.024L33.792 374.784L45.056 360.448L48.128 355.328L51.2 352.256L57.344 344.064L62.464 338.944L76.8 321.536L88.064 307.2L102.4 289.792L113.664 275.456L128 258.048L130.048 253.952L140.288 252.928L145.408 254.976L147.456 258.048V266.24L143.36 272.384L130.048 288.768L118.784 303.104L109.568 314.368L96.256 330.752L91.136 336.896V338.944L87.04 340.992L82.944 346.112L79.872 351.232L66.56 367.616L56.32 380.928L51.2 386.048L40.96 398.336L37.888 403.456L36.864 406.528H476.16L472.064 401.408L468.992 396.288L457.728 381.952L452.608 376.832L443.392 365.568L430.08 349.184L427.008 344.064L422.912 338.944H420.864L418.816 334.848L409.6 323.584L396.288 307.2L385.024 292.864L370.688 275.456L364.544 266.24V258.048L368.64 253.952L376.832 252.928L381.952 253.952L384 258.048L395.264 271.36L406.528 285.696L417.792 299.008L428.032 312.32L442.368 329.728L450.56 339.968L453.632 344.064H455.68L457.728 349.184L462.848 354.304L471.04 365.568L484.352 381.952L487.424 386.048H489.472L490.496 389.12H491.52V119.808L484.352 124.928L477.184 129.024L466.944 137.216L448.512 151.552L429.056 165.888L417.792 174.08L396.288 190.464L376.832 204.8L370.688 209.92L361.472 216.064L339.968 232.448L328.704 241.664L313.344 252.928L306.176 257.024L294.912 266.24L281.6 276.48L273.408 280.576L265.216 282.624H246.784L236.544 279.552L226.304 273.408L216.064 265.216L202.752 254.976L191.488 247.808L173.056 233.472L161.792 224.256L143.36 210.944L133.12 203.776L121.856 194.56L102.4 180.224L89.088 169.984L77.824 161.792L58.368 147.456L45.056 137.216L33.792 128L23.552 121.856L20.48 119.808Z" fill="white"/>
</svg>
