<svg width="677" height="510" viewBox="0 0 677 510" fill="none" xmlns="http://www.w3.org/2000/svg">
<g clip-path="url(#clip0_39_373)">
<path d="M165.188 41.974H169.25L173.312 47.39L190.914 52.806L196.33 55.514L208.516 58.222L227.472 63.638L236.95 64.992L241.012 67.7L269.446 73.116L280.278 70.408L299.234 66.346L308.712 63.638L324.96 58.222L330.376 56.868L333.084 66.346L335.792 74.47V79.886L320.898 83.948L306.004 85.302V88.01L278.924 94.78L270.8 96.134V100.196H264.03V106.966L257.26 108.32V176.02L255.906 209.87L254.552 212.578L253.198 276.216L251.844 301.942L272.154 297.88L292.464 295.172L293.818 293.818L316.836 291.11L337.146 287.048L356.102 285.694V282.986L370.996 281.632L381.828 277.57L383.182 274.862H387.244L391.306 281.632L394.014 287.048H398.076L404.846 293.818L406.2 297.88L412.97 299.234L427.864 308.712L425.156 312.774L430.572 315.482L427.864 311.42L430.572 310.066L438.696 315.482L444.112 316.836H454.944V301.942H459.006V330.376L457.652 331.73H444.112V339.854L442.758 341.208H429.218L426.51 334.438V330.376L392.66 329.022L394.014 339.854L395.368 402.138L400.784 400.784L402.138 398.076H406.2V403.492H418.386V417.032H433.28L435.988 426.51H440.05V431.926H442.758V426.51H446.82L448.174 445.466H461.714V425.156H464.422V445.466H467.13V426.51H471.192V480.67L469.838 498.272L482.024 495.564V492.856L486.086 494.21V496.918L498.272 498.272L500.98 499.626V496.918H505.042V494.21H507.75V496.918H510.458V499.626L519.936 496.918L523.998 499.626V502.334H529.414L532.122 496.918L547.016 499.626L551.078 500.98V496.918L555.14 494.21L561.91 495.564L563.264 500.98H579.512V457.652L580.866 329.022L582.22 262.676H576.804V259.968L547.016 266.738L534.83 268.092H507.75L488.794 265.384L483.378 262.676L484.732 253.198L490.148 250.49L492.856 245.074L513.166 243.72H523.998V241.012L538.892 239.658L557.848 232.888L567.326 230.18L568.68 228.826L593.052 226.118L609.3 222.056H617.424V217.994H620.132V223.41L635.026 224.764V222.056L645.858 220.702L647.212 217.994L659.398 216.64L662.106 217.994V222.056H677V241.012L675.646 250.49L672.938 253.198H656.69V243.72L647.212 245.074V254.552L640.442 255.906H630.964L628.256 254.552L629.61 291.11L628.256 473.9L626.902 496.918H632.318V500.98H628.256L626.902 509.104H203.1V498.272L208.516 494.21L224.764 491.502V488.794H232.888L234.242 492.856H238.304L239.658 487.44H249.136V492.856H266.738L265.384 484.732H281.632V491.502L289.756 492.856V490.148H287.048L282.986 484.732V482.024H280.278L270.8 465.776V445.466H273.508V441.404H281.632L284.34 434.634L282.986 431.926V421.094H277.57V415.678H274.862V412.97H247.782L249.136 456.298L232.888 454.944V446.82L234.242 444.112H236.95V429.218L239.658 412.97H222.056L197.684 411.616V442.758L194.976 509.104H150.294L148.94 495.564L150.294 417.032L153.002 412.97H56.8681L39.2661 411.616L37.9121 408.908L109.674 407.554L60.9301 406.2V403.492H37.9121V394.014L41.9741 389.952H37.9121V385.89H69.0541L102.904 387.244L117.798 388.598L148.94 389.952L153.002 391.306L150.294 387.244L151.648 381.828L153.002 315.482L131.338 312.774L125.922 311.42V301.942L128.63 293.818L134.046 296.526L153.002 297.88V194.976L154.356 165.188H150.294V158.418H153.002V154.356H148.94V140.816H157.064V124.568L144.878 127.276L138.108 128.63V143.524H119.152L117.798 131.338H108.32L105.612 128.63V113.736L106.966 111.028L112.382 109.674H123.214L121.86 100.196L124.568 86.656H127.276L134.046 98.842L143.524 85.302L147.586 79.886L150.294 73.116H153.002L154.356 66.346L155.71 64.992L157.064 51.452L163.834 48.744L165.188 41.974ZM171.958 54.16L176.02 97.488L185.498 96.134L193.622 93.426L205.808 90.718L207.162 89.364L219.348 88.01L222.056 85.302L224.764 86.656V83.948H235.596L243.72 81.24L250.49 79.886L251.844 74.47L242.366 71.762L217.994 64.992L205.808 62.284L182.79 55.514L180.082 54.16H171.958ZM154.356 85.302L148.94 97.488L146.232 106.966L158.418 104.258L155.71 102.904V85.302H154.356ZM147.586 86.656L143.524 94.78L134.046 109.674L140.816 108.32L148.94 92.072L147.586 86.656ZM245.074 101.55L199.038 112.382L178.728 119.152L180.082 121.86V140.816L186.852 142.17V155.71L181.436 157.064L182.79 165.188H180.082V180.082H184.144V184.144H180.082V289.756H182.79V296.526H180.082V300.588L226.118 304.65H238.304L246.428 303.296L247.782 273.508L249.136 197.684L251.844 106.966L246.428 108.32V101.55H245.074ZM253.198 121.86V128.63H254.552V121.86H253.198ZM163.834 174.666V177.374H166.542V174.666H163.834ZM163.834 212.578L162.48 215.286H166.542V212.578H163.834ZM166.542 242.366L165.188 245.074H167.896L166.542 242.366ZM162.48 249.136V251.844L166.542 250.49L162.48 249.136ZM602.53 253.198L593.052 255.906V262.676H587.636L583.574 483.378V491.502L586.282 498.272H590.344V500.98H593.052L594.406 503.688L598.468 500.98L597.114 495.564L602.53 494.21L603.884 361.518V253.198H602.53ZM557.848 257.26L551.078 258.614L511.812 261.322L502.334 262.676V264.03H541.6L565.972 258.614V257.26H557.848ZM616.07 261.322L612.008 262.676V265.384L616.07 266.738L617.424 261.322H616.07ZM612.008 272.154L617.424 274.862V272.154H612.008ZM373.704 284.34L360.164 287.048L358.81 289.756L360.164 300.588L365.58 301.942L366.934 312.774H377.766L380.474 291.11H377.766V284.34H373.704ZM162.48 287.048L161.126 289.756L166.542 288.402L162.48 287.048ZM334.438 291.11L327.668 293.818L297.88 297.88L284.34 300.588L262.676 303.296L261.322 306.004H288.402V308.712H306.004L310.066 307.358V310.066H337.146V291.11H334.438ZM391.306 291.11V316.836H418.386L411.616 308.712H408.908V306.004H406.2L404.846 301.942L395.368 293.818L394.014 291.11H391.306ZM612.008 306.004L610.654 308.712H617.424V306.004H612.008ZM180.082 314.128L178.728 326.314V391.306L180.082 388.598H184.144V391.306H188.206V394.014H204.454V396.722L211.224 398.076H242.366L243.72 387.244V366.934L245.074 350.686V326.314H231.534V323.606H245.074V318.19L215.286 316.836L213.932 315.482L196.33 314.128H180.082ZM250.49 319.544V324.96H295.172V327.668L250.49 329.022L249.136 345.27V370.996L247.782 377.766V399.43L265.384 400.784V398.076L272.154 400.784H292.464L291.11 415.678H299.234V404.846H303.296V402.138L312.774 403.492L318.19 400.784L319.544 404.846L322.252 399.43L329.022 398.076V403.492H331.73V398.076H337.146L335.792 402.138L338.5 403.492L339.854 392.66L345.27 391.306V372.35L342.562 360.164H341.208L339.854 381.828L338.5 337.146L337.146 330.376H333.084V326.314H312.774V329.022L297.88 327.668V324.96H312.774L310.066 322.252L269.446 319.544H250.49ZM161.126 324.96V327.668H166.542V324.96H161.126ZM366.934 327.668L365.58 366.934L370.996 368.288V370.996H373.704V356.102L372.35 350.686L373.704 349.332V333.084L372.35 329.022L366.934 327.668ZM612.008 342.562L610.654 345.27H617.424L616.07 342.562H612.008ZM161.126 361.518V364.226L165.188 362.872L161.126 361.518ZM616.07 370.996L612.008 373.704H617.424L616.07 370.996ZM612.008 379.12V381.828H616.07V379.12H612.008ZM58.2221 389.952L59.5761 394.014L63.6381 389.952H58.2221ZM69.0541 389.952V394.014L73.1161 392.66L69.0541 389.952ZM364.226 389.952L368.288 394.014L370.996 407.554H372.35L373.704 389.952H364.226ZM92.0721 391.306L93.4261 396.722L94.7801 391.306H92.0721ZM138.108 394.014L139.462 398.076H143.524L144.878 394.014H138.108ZM43.3281 396.722L41.9741 399.43H44.6821L43.3281 396.722ZM96.1341 399.43L94.7801 402.138H97.4881L96.1341 399.43ZM117.798 400.784L115.09 403.492H121.86V400.784H117.798ZM144.878 402.138L148.94 404.846V402.138H144.878ZM343.916 406.2L345.27 408.908L346.624 406.2H343.916ZM612.008 415.678L610.654 418.386L616.07 417.032L612.008 415.678ZM242.366 422.448L241.012 423.802L239.658 444.112H243.72V422.448H242.366ZM434.634 429.218L430.572 435.988L431.926 442.758L435.988 444.112V429.218H434.634ZM161.126 435.988L159.772 440.05H163.834L162.48 435.988H161.126ZM440.05 435.988V444.112L442.758 442.758V435.988H440.05ZM612.008 453.59L609.3 456.298H616.07L612.008 453.59ZM429.218 471.192L422.448 477.962L421.094 488.794V496.918L422.448 498.272H435.988V471.192H429.218ZM445.466 472.546V473.9H453.59V472.546H445.466ZM159.772 473.9L158.418 477.962H163.834L162.48 473.9H159.772ZM282.986 475.254L285.694 480.67L291.11 486.086L292.464 479.316L282.986 475.254ZM612.008 490.148L610.654 492.856L616.07 491.502L612.008 490.148ZM281.632 496.918V500.98H285.694V496.918H281.632Z" fill="#B9B9B9"/>
<path d="M251.844 127.276L257.26 128.63V163.834L253.198 165.188L249.136 163.834L250.49 132.692L251.844 127.276Z" fill="#C0C0C0"/>
<path d="M268.092 324.96H295.172V327.668L289.756 329.022H250.49V327.668L266.738 326.314L268.092 324.96Z" fill="#9D9D9D"/>
<path d="M142.17 88.01L146.232 89.364L144.878 94.78L138.108 104.258L134.046 101.55L136.754 94.78L142.17 88.01Z" fill="#A9A9A9"/>
<path d="M180.082 51.452L190.914 52.806L199.038 56.868L197.684 60.93L182.79 56.868L180.082 51.452Z" fill="#BDBDBD"/>
<path d="M318.19 322.252L324.96 323.606V326.314H312.774V329.022L297.88 327.668V324.96L315.482 323.606L318.19 324.96V322.252Z" fill="#BFBFBF"/>
<path d="M81.24 408.908H115.09V410.262L89.364 411.616L79.886 412.97L81.24 408.908Z" fill="#BDBDBD"/>
<path d="M150.294 77.178H153.002L157.064 83.948H150.294L144.878 89.364L143.524 85.302L150.294 77.178Z" fill="#C2C2C2"/>
<path d="M250.49 163.834H257.26V171.958L250.49 174.666V163.834Z" fill="#B2B2B2"/>
<path d="M454.944 301.942H459.006V312.774L456.298 318.19L454.944 316.836V301.942Z" fill="#B5B5B5"/>
<path d="M467.13 426.51H471.192V437.342L467.13 440.05V426.51Z" fill="#BEBEBE"/>
<path d="M239.658 429.218H241.012V442.758L236.95 441.404V430.572L239.658 429.218Z" fill="#BEBEBE"/>
<path d="M582.22 327.668H586.282V341.208L584.928 335.792H582.22L580.866 329.022L582.22 327.668Z" fill="#AEAEAE"/>
<path d="M147.586 92.072L153.002 93.426L147.586 101.55L144.878 100.196L147.586 92.072Z" fill="#BDBDBD"/>
<path d="M280.278 476.608L285.694 479.316V484.732H282.986V482.024H280.278L278.924 477.962L280.278 476.608Z" fill="#ADADAD"/>
<path d="M70.408 408.908H81.24L79.886 412.97H73.116L70.408 408.908Z" fill="#ACACAC"/>
<path d="M285.694 324.96H295.172V327.668L284.34 329.022L285.694 324.96Z" fill="#B3B3B3"/>
<path d="M264.03 299.234H272.154L269.446 303.296H261.322L264.03 299.234Z" fill="#BDBDBD"/>
<path d="M580.866 333.084L582.22 335.792H584.928V342.562H580.866V333.084Z" fill="#C1C1C1"/>
<path d="M150.294 82.594L153.002 83.948V92.072H148.94L150.294 82.594Z" fill="#AFAFAF"/>
</g>
<defs>
<clipPath id="clip0_39_373">
<rect width="677" height="509.104" fill="white"/>
</clipPath>
</defs>
</svg>
