<svg width="512" height="512" viewBox="0 0 512 512" fill="none" xmlns="http://www.w3.org/2000/svg">
<g clip-path="url(#clip0_39_43)">
<path d="M234.496 0H277.504L297.984 2.048L318.464 7.168L338.944 14.336L355.328 22.528L370.688 30.72L381.952 38.912L388.096 44.032L393.216 47.104L407.552 59.392L416.768 68.608L423.936 76.8L428.032 83.968L430.08 88.064L433.152 89.088L443.392 105.472L455.68 129.024L460.8 141.312V154.624L457.728 160.768L449.536 167.936L446.464 168.96H433.152L423.936 162.816L417.792 150.528L407.552 129.024L397.312 114.688L387.072 101.376L377.856 91.136L370.688 83.968L365.568 80.896L350.208 69.632L336.896 61.44L321.536 54.272L296.96 46.08L281.6 43.008L273.408 41.984H238.592L219.136 45.056L198.656 51.2L181.248 58.368L167.936 65.536L147.456 79.872L144.384 82.944L139.264 86.016L126.976 98.304L116.736 111.616L105.472 128L96.256 145.408L89.088 164.864L83.968 184.32L81.92 202.752H126.976L136.192 208.896L140.288 216.064V417.792L137.216 423.936L129.024 430.08L126.976 431.104H66.56L51.2 427.008L38.912 421.888L26.624 412.672L15.36 401.408L7.168 388.096L2.048 375.808L0 364.544V269.312L3.072 254.976L11.264 238.592L18.432 229.376L29.696 218.112L38.912 212.992L40.96 186.368L45.056 160.768L54.272 133.12L62.464 116.736L72.704 98.304L80.896 87.04L88.064 77.824L97.28 66.56L106.496 57.344L114.688 50.176L120.832 45.056L128 40.96L135.168 34.816L150.528 25.6L172.032 15.36L184.32 10.24L204.8 4.096L214.016 2.048L234.496 0ZM79.872 243.712L68.608 245.76L56.32 251.904L48.128 259.072L41.984 271.36L40.96 274.432V359.424L46.08 371.712L56.32 382.976L61.44 386.048L71.68 389.12L79.872 390.144H99.328V243.712H79.872Z" fill="black"/>
<path d="M385.024 202.752H445.44L460.8 206.848L475.136 214.016L484.352 220.16L496.64 232.448L504.832 245.76L509.952 258.048L512 269.312V364.544L508.928 378.88L500.736 395.264L493.568 404.48L482.304 415.744L468.992 423.936L450.56 430.08L445.44 431.104H412.672V443.392L408.576 456.704L403.456 465.92L392.192 478.208L380.928 486.4L371.712 490.496L363.52 492.544L291.84 493.568L285.696 501.76L276.48 508.928L265.216 512H246.784L235.52 508.928L226.304 501.76L219.136 492.544L216.064 485.376V458.752L221.184 448.512L229.376 439.296L237.568 434.176L246.784 431.104H265.216L276.48 435.2L285.696 442.368L291.84 450.56H351.232L359.424 448.512L365.568 444.416L369.664 437.248L370.688 431.104L371.712 216.064L377.856 206.848L385.024 202.752ZM412.672 243.712V390.144H432.128L443.392 388.096L452.608 385.024L462.848 375.808L468.992 365.568L471.04 359.424V275.456L466.944 264.192L460.8 256L450.56 248.832L440.32 244.736L432.128 243.712H412.672Z" fill="black"/>
</g>
<defs>
<clipPath id="clip0_39_43">
<rect width="512" height="512" fill="white"/>
</clipPath>
</defs>
</svg>
