<svg width="512" height="512" viewBox="0 0 512 512" fill="none" xmlns="http://www.w3.org/2000/svg">
<path d="M227.328 88.064H256L278.528 91.136L294.912 95.232L316.416 103.424L337.92 114.688L349.184 122.88L359.424 130.048L367.616 137.216L381.952 151.552L385.024 156.672L393.216 167.936L395.264 173.056H397.312L409.6 196.608L419.84 227.328L423.936 250.88V279.552L430.08 281.6L446.464 291.84L460.8 303.104L466.944 307.2L476.16 319.488L480.256 330.752L481.28 339.968L479.232 353.28L473.088 365.568L463.872 374.784H461.824L460.8 377.856L454.656 381.952L443.392 388.096L441.344 389.12H435.2L430.08 385.024L429.056 382.976V376.832L434.176 371.712L448.512 362.496L455.68 356.352L461.824 346.112L462.848 338.944L459.776 329.728L452.608 320.512L441.344 311.296L430.08 304.128L424.96 301.056H422.912L417.792 315.392L411.648 326.656L404.48 335.872L403.456 350.208L398.336 358.4L388.096 362.496L369.664 367.616L351.232 370.688L340.992 371.712H301.056L292.864 368.64L286.72 361.472L246.784 360.448L216.064 357.376L185.344 352.256L154.624 344.064L145.408 339.968L143.36 336.896V330.752L147.456 325.632L149.504 324.608L158.72 325.632L185.344 332.8L217.088 338.944L245.76 342.016L284.672 343.04L283.648 310.272L281.6 283.648L277.504 254.976L270.336 226.304L263.168 206.848L258.048 197.632L254.976 190.464L245.76 176.128L236.544 165.888L225.28 154.624L210.944 143.36L194.56 134.144L178.176 126.976L167.936 125.952L159.744 130.048L147.456 139.264L146.432 141.312L153.6 143.36L166.912 151.552L181.248 162.816L190.464 172.032L197.632 178.176L208.896 193.536L223.232 220.16L231.424 241.664L237.568 264.192L239.616 274.432V286.72L236.544 290.816L228.352 291.84L223.232 288.768L221.184 283.648L215.04 252.928L207.872 233.472L199.68 216.064L186.368 196.608L174.08 182.272L173.056 179.2L168.96 177.152L158.72 168.96L147.456 162.816L132.096 155.648L128 157.696L117.76 172.032L107.52 190.464L96.2559 216.064L90.1119 235.52L84.9919 258.048V276.48L90.1119 286.72L99.3279 296.96L102.4 300.032L109.568 304.128L119.808 310.272L128 314.368L131.072 318.464V326.656L126.976 330.752L120.832 331.776L104.448 323.584L90.1119 314.368L78.8479 303.104L71.6799 293.888H69.6319L61.4399 300.032L54.2719 306.176L50.1759 313.344V322.56L55.2959 331.776L64.5119 339.968L86.0159 349.184L113.664 360.448L142.336 370.688L184.32 384L198.656 387.072L237.568 397.312L263.168 402.432L281.6 404.48H324.608L348.16 401.408L372.736 396.288L390.144 391.168L403.456 386.048H413.696L418.816 391.168V398.336L413.696 403.456L382.976 413.696L357.376 419.84L325.632 423.936H280.576L254.976 420.864L230.4 415.744L180.224 402.432L132.096 387.072L120.832 382.976L112.64 380.928L88.0639 371.712L72.7039 364.544L53.2479 355.328L43.0079 346.112L35.8399 336.896L31.7439 326.656V309.248L34.8159 302.08L43.0079 291.84L48.1279 285.696L56.3199 278.528L65.5359 270.336L67.5839 249.856L72.7039 226.304L77.8239 209.92L86.0159 189.44L90.1119 180.224L98.3039 165.888L108.544 151.552L120.832 138.24L132.096 126.976L147.456 115.712L161.792 107.52L178.176 99.328L197.632 93.184L218.112 89.088L227.328 88.064ZM228.352 106.496L209.92 109.568L195.584 113.664L198.656 115.712L212.992 123.904L222.208 130.048L229.376 134.144L239.616 143.36L247.808 150.528L257.024 161.792L266.24 174.08L274.432 187.392L282.624 203.776L290.816 227.328L294.912 248.832L300.032 297.984L303.104 352.256L305.152 353.28H338.944L361.472 350.208L386.048 344.064L385.024 325.632L377.856 262.144L372.736 238.592L363.52 210.944L355.328 194.56L348.16 181.248L340.992 168.96H338.944L336.896 164.864L329.728 155.648L318.464 143.36L310.272 135.168L303.104 129.024H301.056L300.032 125.952L292.864 121.856L277.504 111.616L272.384 108.544L260.096 106.496H228.352ZM334.848 134.144L335.872 136.192L337.92 135.168L334.848 134.144ZM338.944 137.216L340.992 142.336L348.16 150.528L360.448 167.936L368.64 181.248L376.832 197.632L380.928 206.848L385.024 220.16L391.168 242.688L395.264 267.264L399.36 304.128L401.408 306.176L405.504 294.912L406.528 288.768V258.048L401.408 232.448L393.216 207.872L387.072 195.584L384 188.416L374.784 173.056L371.712 168.96H369.664L367.616 164.864L358.4 154.624L353.28 148.48L345.088 141.312L340.992 137.216H338.944Z" fill="black"/>
</svg>
