<svg width="150" height="464" viewBox="0 0 150 464" fill="none" xmlns="http://www.w3.org/2000/svg">
<g clip-path="url(#clip0_39_55)">
<path d="M67 278H82L95 281L107 287L117 295L126 306L132 319L135 333V342L131 357L123 374L110 395L97 413L87 426L77 439L72 438L60 423L47 405L33 384L24 368L17 352L15 344V329L19 315L25 304L34 294L44 286L55 281L67 278ZM67 308L55 314L49 321L45 330V346L50 356L54 361L62 366L68 368H81L90 365L100 356L104 348L105 345V331L101 322L97 316L88 310L82 308H67Z" fill="#FA7200"/>
<path d="M63 0H86L99 4L110 10L121 20L130 34L134 45L135 50V67L130 83L119 104L109 119L100 132L125 137L138 142L146 148L150 153V161L146 167L137 173L127 177L111 181L97 183L78 184H66L44 182L25 178L10 172L1 164L0 162V153L3 148L12 142L24 137L49 132L45 125L33 107L24 91L18 78L14 62L15 48L20 33L27 22L37 12L48 5L63 0ZM73 6L60 8L48 13L37 21L29 31L24 42L21 56L22 68L28 84L37 101L47 116L60 134L71 148L74 152H76L89 135L103 116L115 97L123 81L127 71L128 66V51L124 38L119 29L110 19L100 12L86 7L73 6ZM51 139L33 142L17 147L8 153L6 158L9 163L23 170L40 174L55 176H95L115 173L132 168L140 163L143 160L142 153L132 147L121 143L100 139H94L90 144L93 146L103 149L109 153L110 159L109 162L104 164L88 168H62L48 165L41 161L40 154L44 150L60 145L56 139H51ZM84 151L77 160L72 159L66 152H57L48 155L50 157L49 159L62 162H88L101 159L104 156L97 153L84 151Z" fill="#FA7100"/>
<path d="M42 417H51L60 429V431L46 435L43 437V441L54 445L59 446L77 447L96 445L106 441L107 437L98 433L90 431L92 426L99 417H108L126 421L141 427L149 434L150 436V443L145 449L129 457L106 462L98 463H52L32 460L16 455L6 450L0 444V435L5 430L13 425L27 420L42 417Z" fill="#FA7200"/>
<path d="M68 29H82L91 33L99 40L104 48L106 55V65L103 74L96 83L89 88L79 91H70L59 87L50 79L45 70L44 66V53L48 43L54 36L64 30L68 29ZM69 36L60 40L54 47L51 54V65L54 73L58 78L67 83L71 84H79L89 80L96 72L99 64V56L96 47L91 41L81 36H69Z" fill="#FA7100"/>
<path d="M64 170H86V171H64V170Z" fill="#FF5E00"/>
<path d="M136 51H137V66H136V51Z" fill="#FF6600"/>
<path d="M126 51H127V66H126V51Z" fill="#FF5500"/>
<path d="M69 366H81V367H69V366Z" fill="#FF7500"/>
<path d="M103 332H104V344H103V332Z" fill="#FF6300"/>
<path d="M82 174H94V175H82V174Z" fill="#FF4300"/>
<path d="M56 174H68V175H56V174Z" fill="#FF3F00"/>
<path d="M42 54H43V66H42V54Z" fill="#FF6A00"/>
<path d="M69 37H81V38H69V37Z" fill="#FF3800"/>
<path d="M13 331H14V342H13V331Z" fill="#FF4D00"/>
<path d="M69 276H80V277H69V276Z" fill="#FF0000"/>
<path d="M83 184H94V185H83V184Z" fill="#FF5D00"/>
<path d="M52 54H53V65H52V54Z" fill="#FF6C00"/>
<path d="M54 184H64V185H54V184Z" fill="#FF4C00"/>
<path d="M79 159L87 160V161H78L79 159Z" fill="#FF6C00"/>
<path d="M70 159L72 161H63V160L70 159Z" fill="#FF6E00"/>
<path d="M82 445H90V446H82V445Z" fill="#FF4F00"/>
<path d="M60 445H68V446H60V445Z" fill="#FF5500"/>
<path d="M47 129L49 132H43L47 131V129Z" fill="#FF4F00"/>
<path d="M107 56H108V64H107V56Z" fill="#FF5500"/>
<path d="M46 173H53V174H46V173Z" fill="#FF5500"/>
<path d="M97 56H98V63H97V56Z" fill="#FF6100"/>
<path d="M99 463H105V464H99V463Z" fill="#FF6300"/>
<path d="M45 463H51V464H45V463Z" fill="#FF6300"/>
<path d="M46 183H52V184H46V183Z" fill="#FF4700"/>
<path d="M97 173H103V174H97V173Z" fill="#FF5C00"/>
<path d="M43 141H49V142H43V141Z" fill="#FF4E00"/>
<path d="M72 92H78V93H72V92Z" fill="#FF0000"/>
<path d="M72 82H78V83H72V82Z" fill="#FF8000"/>
<path d="M76 27H82V28H76V27Z" fill="#FF4E00"/>
<path d="M68 27H74V28H68V27Z" fill="#FF3800"/>
<path d="M38 462H43V463H38V462Z" fill="#FF5D00"/>
<path d="M102 415H107V416H102V415Z" fill="#FF5500"/>
<path d="M43 415H48V416H43V415Z" fill="#FF5D00"/>
<path d="M135 342H136V347H135V342Z" fill="#FF4400"/>
<path d="M135 327H136V332H135V327Z" fill="#FF3B00"/>
<path d="M98 183H103V184H98V183Z" fill="#FF5500"/>
<path d="M105 182H110V183H105V182Z" fill="#FF5D00"/>
<path d="M39 182H44V183H39V182Z" fill="#FF4C00"/>
<path d="M40 172H45V173H40V172Z" fill="#FF4400"/>
<path d="M56 169H61V170H56V169Z" fill="#FF4400"/>
<path d="M56 159H61V160H56V159Z" fill="#FF4400"/>
<path d="M37 154H38V159H37V154Z" fill="#FF5500"/>
<path d="M141 155H142V160H141V155Z" fill="#FF6100"/>
<path d="M87 153H92V154H87V153Z" fill="#FF4400"/>
<path d="M58 153H63V154H58V153Z" fill="#FF5D00"/>
<path d="M101 141H106V142H101V141Z" fill="#FF5D00"/>
<path d="M94 140H99V141H94V140Z" fill="#FF5500"/>
<path d="M107 132H112V133H107V132Z" fill="#FF4400"/>
<path d="M101 130L105 132H101V130Z" fill="#FF3F00"/>
<path d="M13 63H14V68H13V63Z" fill="#FF4C00"/>
<path d="M13 49H14V54H13V49Z" fill="#FF3B00"/>
<path d="M23 49H24V54H23V49Z" fill="#FF4400"/>
<path d="M89 42L92 43L91 45L89 42Z" fill="#FF0000"/>
<path d="M80 8H85V9H80V8Z" fill="#FF5D00"/>
<path d="M2 166L4 168H2V166Z" fill="#FF0000"/>
<path d="M9 160L11 162H9V160Z" fill="#FF2A00"/>
<path d="M74 149L76 150L74 151V149Z" fill="#FF3800"/>
</g>
<defs>
<clipPath id="clip0_39_55">
<rect width="150" height="464" fill="white"/>
</clipPath>
</defs>
</svg>
