<svg width="150" height="185" viewBox="0 0 150 185" fill="none" xmlns="http://www.w3.org/2000/svg">
<path d="M67 0H82L95 3L107 9L117 17L126 28L132 41L135 55V64L131 79L123 96L110 117L97 135L77 161L72 160L60 145L47 127L33 106L24 90L17 74L15 66V51L19 37L25 26L34 16L44 8L55 3L67 0ZM67 30L55 36L49 43L45 52V68L50 78L54 83L62 88L68 90H81L90 87L100 78L104 70L105 67V53L101 44L97 38L88 32L82 30H67Z" fill="#FA7200"/>
<path d="M42 139H51L60 151V153L46 157L43 159V163L54 167L59 168L77 169L96 167L106 163L107 159L98 155L90 153L92 148L99 139H108L126 143L141 149L149 156L150 158V165L145 171L129 179L106 184L98 185H52L32 182L16 177L6 172L0 166V157L5 152L13 147L27 142L42 139Z" fill="#FA7200"/>
</svg>
