<svg width="512" height="512" viewBox="0 0 512 512" fill="none" xmlns="http://www.w3.org/2000/svg">
<path d="M238.592 0H273.408L293.888 3.072L315.392 10.24L334.848 20.48L352.256 33.792L362.496 43.008L369.664 49.152L381.952 65.536L388.096 76.8L396.288 93.184L402.432 111.616L406.528 131.072L407.552 146.432V365.568L406.528 380.928L401.408 404.48L394.24 423.936L384 442.368L377.856 452.608L365.568 466.944L357.376 474.112L342.016 486.4L327.68 495.616L312.32 502.784L290.816 509.952L273.408 512H238.592L221.184 509.952L204.8 504.832L191.488 499.712L176.128 491.52L158.72 478.208L147.456 467.968L142.336 462.848L134.144 453.632L128 443.392L118.784 427.008L114.688 418.816L109.568 403.456L105.472 385.024L104.448 378.88V133.12L108.544 112.64L113.664 96.256L117.76 87.04L125.952 71.68L132.096 61.44L140.288 51.2L145.408 45.056L156.672 35.84L164.864 28.672L178.176 19.456L193.536 11.264L214.016 4.096L221.184 2.048L238.592 0ZM249.856 31.744L228.352 34.816L205.824 41.984L189.44 51.2L178.176 60.416L167.936 69.632L161.792 77.824L159.744 82.944L156.672 83.968L147.456 100.352L141.312 116.736L137.216 134.144L136.192 145.408V366.592L138.24 384L144.384 404.48L152.576 420.864L159.744 432.128L167.936 441.344L175.104 449.536L191.488 461.824L207.872 471.04L232.448 478.208L250.88 480.256H261.12L282.624 477.184L303.104 471.04L318.464 462.848L330.752 453.632L343.04 442.368L344.064 439.296H346.112L352.256 430.08L359.424 419.84L367.616 402.432L372.736 385.024L374.784 370.688V141.312L371.712 123.904L366.592 107.52L358.4 91.136L351.232 79.872L344.064 71.68L336.896 63.488L324.608 53.248L309.248 44.032L299.008 39.936L282.624 34.816L261.12 31.744H249.856Z" fill="white"/>
<path d="M253.952 100.352L264.192 102.4L270.336 109.568L271.36 111.616V193.536L267.264 200.704L262.144 203.776L252.928 204.8L245.76 201.728L240.64 195.584L239.616 193.536V111.616L243.712 105.472L249.856 101.376L253.952 100.352Z" fill="white"/>
</svg>
