<svg width="512" height="512" viewBox="0 0 512 512" fill="none" xmlns="http://www.w3.org/2000/svg">
<g clip-path="url(#clip0_39_542)">
<path d="M91.136 28.672H104.448L116.736 31.744L126.976 37.888L140.288 49.152L167.936 76.8L175.104 84.992L187.392 96.256L197.632 106.496L205.824 117.76L210.944 129.024L211.968 144.384L210.944 156.672L205.824 168.96H203.776L201.728 173.056L192.512 184.32L167.936 208.896L162.816 212.992L163.84 218.112L173.056 235.52L185.344 252.928L194.56 263.168L203.776 274.432L210.944 282.624L218.112 290.816L227.328 300.032L236.544 307.2L251.904 320.512L262.144 328.704L280.576 340.992L294.912 348.16L299.008 347.136L333.824 312.32L344.064 305.152L352.256 301.056L360.448 300.032H375.808L386.048 302.08L397.312 308.224L413.696 323.584L423.936 333.824L431.104 342.016L441.344 351.232L465.92 375.808L470.016 381.952L476.16 390.144L480.256 401.408L481.28 406.528V421.888L478.208 432.128L471.04 445.44L467.968 448.512L464.896 453.632L451.584 466.944L443.392 474.112L425.984 491.52L420.864 496.64L410.624 503.808L396.288 509.952L381.952 512H353.28L333.824 509.952L308.224 502.784L279.552 491.52L258.048 481.28L241.664 472.064L226.304 463.872L216.064 457.728L205.824 450.56L192.512 441.344L173.056 427.008L172.032 424.96L166.912 421.888L153.6 410.624L143.36 401.408L130.048 389.12L124.928 382.976L116.736 375.808L106.496 364.544L97.28 353.28L88.064 342.016L76.8 327.68L65.536 312.32L55.296 296.96L45.056 281.6L41.984 274.432L24.576 241.664L13.312 214.016L7.168 197.632L2.048 177.152L0 157.696V131.072L2.048 115.712L9.216 99.328L17.408 87.04L25.6 79.872L44.032 61.44L51.2 53.248L58.368 45.056L64.512 40.96L75.776 33.792L87.04 29.696L91.136 28.672ZM97.28 59.392L88.064 62.464L79.872 69.632L68.608 81.92L60.416 89.088L40.96 108.544L36.864 115.712L32.768 125.952L30.72 136.192V152.576L33.792 172.032L41.984 201.728L48.128 217.088L64.512 250.88L73.728 266.24L81.92 279.552L87.04 288.768L96.256 301.056L110.592 319.488L124.928 336.896L129.024 343.04L135.168 348.16L142.336 356.352L162.816 376.832L167.936 380.928L172.032 386.048L178.176 390.144L191.488 401.408L209.92 414.72L214.016 418.816L229.376 429.056L237.568 433.152L256 444.416L275.456 454.656L301.056 466.944L312.32 471.04L333.824 477.184L356.352 481.28H379.904L392.192 477.184L405.504 468.992L420.864 452.608L429.056 444.416L436.224 436.224L444.416 429.056L449.536 420.864L450.56 417.792V410.624L446.464 402.432L437.248 392.192L430.08 385.024L424.96 379.904L387.072 342.016L381.952 336.896L376.832 332.8L370.688 330.752L361.472 331.776L350.208 339.968L333.824 356.352L326.656 364.544L318.464 371.712L311.296 378.88L307.2 380.928H288.768L265.216 368.64L248.832 357.376L232.448 345.088L221.184 335.872L216.064 333.824L214.016 329.728L200.704 317.44L187.392 304.128L180.224 295.936L176.128 290.816L173.056 287.744L161.792 273.408L150.528 258.048L143.36 247.808L135.168 232.448L131.072 223.232L130.048 217.088V205.824L133.12 197.632L143.36 187.392L151.552 180.224L168.96 163.84L174.08 157.696L179.2 150.528L181.248 142.336L178.176 133.12L173.056 125.952L164.864 118.784L131.072 84.992L125.952 79.872L109.568 63.488L99.328 59.392H97.28Z" fill="white"/>
<path d="M277.504 0H290.816L308.224 3.072L334.848 11.264L364.544 24.576L380.928 33.792L396.288 44.032L403.456 48.128L420.864 62.464L452.608 94.208L465.92 111.616L473.088 123.904L482.304 138.24L490.496 154.624L498.688 173.056L504.832 190.464L509.952 209.92L512 223.232V233.472L508.928 239.616L502.784 243.712H492.544L485.376 239.616L482.304 235.52L475.136 205.824L467.968 182.272L455.68 156.672L445.44 139.264L435.2 124.928L429.056 117.76L422.912 109.568L414.72 101.376L409.6 96.256L399.36 86.016L390.144 78.848L386.048 76.8L381.952 72.704L362.496 60.416L337.92 47.104L324.608 41.984L303.104 35.84L277.504 29.696L271.36 25.6L268.288 20.48L267.264 12.288L270.336 4.096L275.456 1.024L277.504 0Z" fill="white"/>
<path d="M277.504 91.136L291.84 93.184L311.296 99.328L328.704 106.496L340.992 113.664L358.4 125.952L367.616 133.12L381.952 147.456L386.048 153.6L396.288 167.936L405.504 183.296L413.696 202.752L419.84 225.28V238.592L415.744 244.736L410.624 247.808L402.432 248.832L394.24 245.76L390.144 240.64L387.072 231.424L384 216.064L374.784 194.56L364.544 178.176L358.4 171.008V168.96L354.304 166.912L350.208 162.816V160.768L346.112 158.72L342.016 153.6L324.608 141.312L307.2 132.096L293.888 126.976L273.408 122.88L267.264 118.784L264.192 114.688L263.168 104.448L266.24 97.28L271.36 93.184L277.504 91.136Z" fill="white"/>
</g>
<defs>
<clipPath id="clip0_39_542">
<rect width="512" height="512" fill="white"/>
</clipPath>
</defs>
</svg>
