<svg width="149" height="147" viewBox="0 0 149 147" fill="none" xmlns="http://www.w3.org/2000/svg">
<mask id="path-1-inside-1_52_3" fill="white">
<path d="M17 91H55L56 92V115H47V100H25L26 121H85L86 122V130H16V92L17 91Z"/>
<path d="M16 16H56V54L55 55H17L16 54V16ZM25 24V46H47V24H46V45H26V26L27 27V44H45V25L25 24Z"/>
<path d="M92 91H131L132 92V130H92V91ZM101 100V122H102V101L103 102V121H123V100H101Z"/>
<path d="M92 16H132V54L131 55H93L92 54V16ZM101 24V46H123V25H103V44L102 45V24H101Z"/>
<path d="M32 61H40L41 62V74H55L56 76V85H16V77L17 76H32V61Z"/>
<path d="M140 112H148L149 113V130L146 139L142 144L136 147H113V139L133 138L138 135L139 132L140 112Z"/>
<path d="M113 0H137L145 6L148 12L149 18V34L148 35H140L139 15L136 10L134 9L113 8V0Z"/>
<path d="M11 0H35V8L14 9L9 14L8 35H0V11L4 5L9 1L11 0Z"/>
<path d="M0 112H8L9 133L12 137L15 138L35 139V147H12L5 143L0 136V112Z"/>
<path d="M107 61H116V76H131L132 77V85H107V61Z"/>
<path d="M92 61H101V85H77V76H92V61Z"/>
<path d="M62 46H86V55H71V70H62V46Z"/>
<path d="M77 16H86V40H62V31H77V16Z"/>
<path d="M77 91H86V115H62V106H76L77 91Z"/>
<path d="M62 91H71V100H62V91Z"/>
<path d="M62 76H71V85H62V76Z"/>
<path d="M77 61H86V70H77V61Z"/>
<path d="M47 61H56V70H47V61Z"/>
<path d="M108 106H116V115H107V107L108 106Z"/>
<path d="M123 61H131L132 62V70H123V61Z"/>
<path d="M17 61H25V70H16V62L17 61Z"/>
<path d="M107 31H116V40H108L107 39V31Z"/>
<path d="M32 31H41V39L40 40H32V31Z"/>
<path d="M62 16H71V24L70 25H62V16Z"/>
<path d="M32 106H40L41 107V114L40 115H32V106Z"/>
<path d="M26 101H46V115H45V102H27L28 120H26V101Z"/>
<path d="M93 89H131V90H93V89Z"/>
<path d="M17 89H55V90H17V89Z"/>
<path d="M17 86H55V87H17V86Z"/>
<path d="M90 92H91V129H90V92Z"/>
<path d="M90 17H91V54H90V17Z"/>
<path d="M17 56H51V57H17V56Z"/>
<path d="M75 16H76V30H62V29H75V16Z"/>
<path d="M90 62H91V75H78V74H90V62Z"/>
<path d="M62 116H86V117H62V116Z"/>
<path d="M102 61H103V85H102V61Z"/>
<path d="M60 46H61V70H60V46Z"/>
<path d="M62 44H86V45H62V44Z"/>
<path d="M87 92H88V115H87V92Z"/>
<path d="M108 86H131V87H108V86Z"/>
<path d="M78 86H101V87H78V86Z"/>
<path d="M72 56H83V57H73V69H72V56Z"/>
<path d="M87 16H88V39H87V16Z"/>
<path d="M113 137H133V138H113V137Z"/>
<path d="M9 112H10V132H9V112Z"/>
<path d="M113 9H133V10H113V9Z"/>
<path d="M15 9H35V10H15V9Z"/>
<path d="M16 137H35V138H16V137Z"/>
<path d="M138 113H139V132H138V113Z"/>
<path d="M138 15H139V34H138V15Z"/>
<path d="M9 15H10V34H9V15Z"/>
<path d="M117 74H131V75H117V74Z"/>
<path d="M17 74H31V75H17V74Z"/>
<path d="M75 92H76V105H75V92Z"/>
<path d="M62 101H71V102H62V101Z"/>
<path d="M111 139H112V147H111V139Z"/>
<path d="M36 139H37V147H36V139Z"/>
<path d="M87 122H88V130H87V122Z"/>
<path d="M108 116H116V117H108V116Z"/>
<path d="M47 116H55V117H47V116Z"/>
<path d="M32 116H40V117H32V116Z"/>
<path d="M140 110H148V111H140V110Z"/>
<path d="M0 110H8V111H0V110Z"/>
<path d="M60 107H61V115H60V107Z"/>
<path d="M72 92H73V100H72V92Z"/>
<path d="M60 92H61V100H60V92Z"/>
<path d="M62 86H70V87H62V86Z"/>
<path d="M60 77H61V85H60V77Z"/>
<path d="M123 71H131V72H123V71Z"/>
<path d="M62 71H70V72H62V71Z"/>
<path d="M47 71H55V72H47V71Z"/>
<path d="M17 71H25V72H17V71Z"/>
<path d="M45 62H46V70H45V62Z"/>
<path d="M26 61H27V69H26V61Z"/>
<path d="M123 59H131V60H123V59Z"/>
<path d="M108 59H116V60H108V59Z"/>
<path d="M93 59H101V60H93V59Z"/>
<path d="M47 59H55V60H47V59Z"/>
<path d="M32 59H40V60H32V59Z"/>
<path d="M17 59H25V60H17V59Z"/>
<path d="M87 46H88V54H87V46Z"/>
<path d="M60 31H61V39H60V31Z"/>
<path d="M108 29H116V30H108V29Z"/>
<path d="M32 29H40V30H32V29Z"/>
<path d="M72 16H73V24H72V16Z"/>
<path d="M60 16H61V24H60V16Z"/>
<path d="M111 0H112V8H111V0Z"/>
<path d="M78 89H85V90H78V89Z"/>
<path d="M75 77H76V84H75V77Z"/>
<path d="M72 77H73V84H72V77Z"/>
<path d="M63 74H70V75H63V74Z"/>
<path d="M78 71H85V72H78V71Z"/>
<path d="M87 62H88V69H87V62Z"/>
<path d="M75 62H76V69H75V62Z"/>
<path d="M78 59H85V60H78V59Z"/>
<path d="M141 36H148V37H141V36Z"/>
<path d="M0 36H7V37H0V36Z"/>
<path d="M36 0H37V7H36V0Z"/>
<path d="M63 89H69V90H63V89Z"/>
<path d="M57 62H58V68H57V62Z"/>
<path d="M57 47H58V53H57V47Z"/>
</mask>
<path d="M17 91H55L56 92V115H47V100H25L26 121H85L86 122V130H16V92L17 91Z" fill="white"/>
<path d="M16 16H56V54L55 55H17L16 54V16ZM25 24V46H47V24H46V45H26V26L27 27V44H45V25L25 24Z" fill="white"/>
<path d="M92 91H131L132 92V130H92V91ZM101 100V122H102V101L103 102V121H123V100H101Z" fill="white"/>
<path d="M92 16H132V54L131 55H93L92 54V16ZM101 24V46H123V25H103V44L102 45V24H101Z" fill="white"/>
<path d="M32 61H40L41 62V74H55L56 76V85H16V77L17 76H32V61Z" fill="white"/>
<path d="M140 112H148L149 113V130L146 139L142 144L136 147H113V139L133 138L138 135L139 132L140 112Z" fill="white"/>
<path d="M113 0H137L145 6L148 12L149 18V34L148 35H140L139 15L136 10L134 9L113 8V0Z" fill="white"/>
<path d="M11 0H35V8L14 9L9 14L8 35H0V11L4 5L9 1L11 0Z" fill="white"/>
<path d="M0 112H8L9 133L12 137L15 138L35 139V147H12L5 143L0 136V112Z" fill="white"/>
<path d="M107 61H116V76H131L132 77V85H107V61Z" fill="white"/>
<path d="M92 61H101V85H77V76H92V61Z" fill="white"/>
<path d="M62 46H86V55H71V70H62V46Z" fill="white"/>
<path d="M77 16H86V40H62V31H77V16Z" fill="white"/>
<path d="M77 91H86V115H62V106H76L77 91Z" fill="white"/>
<path d="M62 91H71V100H62V91Z" fill="white"/>
<path d="M62 76H71V85H62V76Z" fill="white"/>
<path d="M77 61H86V70H77V61Z" fill="white"/>
<path d="M47 61H56V70H47V61Z" fill="white"/>
<path d="M108 106H116V115H107V107L108 106Z" fill="white"/>
<path d="M123 61H131L132 62V70H123V61Z" fill="white"/>
<path d="M17 61H25V70H16V62L17 61Z" fill="white"/>
<path d="M107 31H116V40H108L107 39V31Z" fill="white"/>
<path d="M32 31H41V39L40 40H32V31Z" fill="white"/>
<path d="M62 16H71V24L70 25H62V16Z" fill="white"/>
<path d="M32 106H40L41 107V114L40 115H32V106Z" fill="white"/>
<path d="M26 101H46V115H45V102H27L28 120H26V101Z" fill="white"/>
<path d="M93 89H131V90H93V89Z" fill="white"/>
<path d="M17 89H55V90H17V89Z" fill="white"/>
<path d="M17 86H55V87H17V86Z" fill="white"/>
<path d="M90 92H91V129H90V92Z" fill="white"/>
<path d="M90 17H91V54H90V17Z" fill="white"/>
<path d="M17 56H51V57H17V56Z" fill="white"/>
<path d="M75 16H76V30H62V29H75V16Z" fill="white"/>
<path d="M90 62H91V75H78V74H90V62Z" fill="white"/>
<path d="M62 116H86V117H62V116Z" fill="white"/>
<path d="M102 61H103V85H102V61Z" fill="white"/>
<path d="M60 46H61V70H60V46Z" fill="white"/>
<path d="M62 44H86V45H62V44Z" fill="white"/>
<path d="M87 92H88V115H87V92Z" fill="white"/>
<path d="M108 86H131V87H108V86Z" fill="white"/>
<path d="M78 86H101V87H78V86Z" fill="white"/>
<path d="M72 56H83V57H73V69H72V56Z" fill="white"/>
<path d="M87 16H88V39H87V16Z" fill="white"/>
<path d="M113 137H133V138H113V137Z" fill="white"/>
<path d="M9 112H10V132H9V112Z" fill="white"/>
<path d="M113 9H133V10H113V9Z" fill="white"/>
<path d="M15 9H35V10H15V9Z" fill="white"/>
<path d="M16 137H35V138H16V137Z" fill="white"/>
<path d="M138 113H139V132H138V113Z" fill="white"/>
<path d="M138 15H139V34H138V15Z" fill="white"/>
<path d="M9 15H10V34H9V15Z" fill="white"/>
<path d="M117 74H131V75H117V74Z" fill="white"/>
<path d="M17 74H31V75H17V74Z" fill="white"/>
<path d="M75 92H76V105H75V92Z" fill="white"/>
<path d="M62 101H71V102H62V101Z" fill="white"/>
<path d="M111 139H112V147H111V139Z" fill="white"/>
<path d="M36 139H37V147H36V139Z" fill="white"/>
<path d="M87 122H88V130H87V122Z" fill="white"/>
<path d="M108 116H116V117H108V116Z" fill="white"/>
<path d="M47 116H55V117H47V116Z" fill="white"/>
<path d="M32 116H40V117H32V116Z" fill="white"/>
<path d="M140 110H148V111H140V110Z" fill="white"/>
<path d="M0 110H8V111H0V110Z" fill="white"/>
<path d="M60 107H61V115H60V107Z" fill="white"/>
<path d="M72 92H73V100H72V92Z" fill="white"/>
<path d="M60 92H61V100H60V92Z" fill="white"/>
<path d="M62 86H70V87H62V86Z" fill="white"/>
<path d="M60 77H61V85H60V77Z" fill="white"/>
<path d="M123 71H131V72H123V71Z" fill="white"/>
<path d="M62 71H70V72H62V71Z" fill="white"/>
<path d="M47 71H55V72H47V71Z" fill="white"/>
<path d="M17 71H25V72H17V71Z" fill="white"/>
<path d="M45 62H46V70H45V62Z" fill="white"/>
<path d="M26 61H27V69H26V61Z" fill="white"/>
<path d="M123 59H131V60H123V59Z" fill="white"/>
<path d="M108 59H116V60H108V59Z" fill="white"/>
<path d="M93 59H101V60H93V59Z" fill="white"/>
<path d="M47 59H55V60H47V59Z" fill="white"/>
<path d="M32 59H40V60H32V59Z" fill="white"/>
<path d="M17 59H25V60H17V59Z" fill="white"/>
<path d="M87 46H88V54H87V46Z" fill="white"/>
<path d="M60 31H61V39H60V31Z" fill="white"/>
<path d="M108 29H116V30H108V29Z" fill="white"/>
<path d="M32 29H40V30H32V29Z" fill="white"/>
<path d="M72 16H73V24H72V16Z" fill="white"/>
<path d="M60 16H61V24H60V16Z" fill="white"/>
<path d="M111 0H112V8H111V0Z" fill="white"/>
<path d="M78 89H85V90H78V89Z" fill="white"/>
<path d="M75 77H76V84H75V77Z" fill="white"/>
<path d="M72 77H73V84H72V77Z" fill="white"/>
<path d="M63 74H70V75H63V74Z" fill="white"/>
<path d="M78 71H85V72H78V71Z" fill="white"/>
<path d="M87 62H88V69H87V62Z" fill="white"/>
<path d="M75 62H76V69H75V62Z" fill="white"/>
<path d="M78 59H85V60H78V59Z" fill="white"/>
<path d="M141 36H148V37H141V36Z" fill="white"/>
<path d="M0 36H7V37H0V36Z" fill="white"/>
<path d="M36 0H37V7H36V0Z" fill="white"/>
<path d="M63 89H69V90H63V89Z" fill="white"/>
<path d="M57 62H58V68H57V62Z" fill="white"/>
<path d="M57 47H58V53H57V47Z" fill="white"/>
<path d="M139.776 145.447L141.776 146.447L142.224 145.553L140.224 144.553L139.776 145.447ZM133.776 136.447L135.776 137.447L136.224 136.553L134.224 135.553L133.776 136.447ZM11.7764 136.447L13.7764 137.447L14.2236 136.553L12.2236 135.553L11.7764 136.447ZM119.776 119.447L121.776 120.447L122.224 119.553L120.224 118.553L119.776 119.447ZM119.776 26.4472L121.776 27.4472L122.224 26.5528L120.224 25.5528L119.776 26.4472ZM133.776 10.4472L135.776 11.4472L136.224 10.5528L134.224 9.55279L133.776 10.4472ZM11.7764 10.4472L13.7764 11.4472L14.2236 10.5528L12.2236 9.55279L11.7764 10.4472ZM6.77639 0.447214L8.77639 1.44721L9.22361 0.552786L7.22361 -0.447214L6.77639 0.447214ZM17 91V90H16.5858L16.2929 90.2929L17 91ZM55 91L55.7071 90.2929L55.4142 90H55V91ZM56 92H57V91.5858L56.7071 91.2929L56 92ZM56 115V116H57V115H56ZM47 115H46V116H47V115ZM47 100H48V99H47V100ZM25 100V99H23.9512L24.0011 100.048L25 100ZM26 121L25.0011 121.048L25.0465 122H26V121ZM85 121L85.7071 120.293L85.4142 120H85V121ZM86 122H87V121.586L86.7071 121.293L86 122ZM86 130V131H87V130H86ZM16 130H15V131H16V130ZM16 92L15.2929 91.2929L15 91.5858V92H16ZM16 16V15H15V16H16ZM56 16H57V15H56V16ZM56 54L56.7071 54.7071L57 54.4142V54H56ZM55 55V56H55.4142L55.7071 55.7071L55 55ZM17 55L16.2929 55.7071L16.5858 56H17V55ZM16 54H15V54.4142L15.2929 54.7071L16 54ZM25 24L25.0499 23.0012L24 22.9488V24H25ZM25 46H24V47H25V46ZM47 46V47H48V46H47ZM47 24H48V23H47V24ZM46 24V23H45V24H46ZM46 45V46H47V45H46ZM26 45H25V46H26V45ZM26 26L26.7071 25.2929L25 23.5858V26H26ZM27 27H28V26.5858L27.7071 26.2929L27 27ZM27 44H26V45H27V44ZM45 44V45H46V44H45ZM45 25H46V24.0488L45.0499 24.0012L45 25ZM92 91V90H91V91H92ZM131 91L131.707 90.2929L131.414 90H131V91ZM132 92H133V91.5858L132.707 91.2929L132 92ZM132 130V131H133V130H132ZM92 130H91V131H92V130ZM101 100V99H100V100H101ZM101 122H100V123H101V122ZM102 122V123H103V122H102ZM102 101L102.707 100.293L101 98.5858V101H102ZM103 102H104V101.586L103.707 101.293L103 102ZM103 121H102V122H103V121ZM123 121V122H124V121H123ZM123 100H124V99H123V100ZM92 16V15H91V16H92ZM132 16H133V15H132V16ZM132 54L132.707 54.7071L133 54.4142V54H132ZM131 55V56H131.414L131.707 55.7071L131 55ZM93 55L92.2929 55.7071L92.5858 56H93V55ZM92 54H91V54.4142L91.2929 54.7071L92 54ZM101 24V23H100V24H101ZM101 46H100V47H101V46ZM123 46V47H124V46H123ZM123 25H124V24H123V25ZM103 25V24H102V25H103ZM103 44L103.707 44.7071L104 44.4142V44H103ZM102 45H101V47.4142L102.707 45.7071L102 45ZM102 24H103V23H102V24ZM32 61V60H31V61H32ZM40 61L40.7071 60.2929L40.4142 60H40V61ZM41 62H42V61.5858L41.7071 61.2929L41 62ZM41 74H40V75H41V74ZM55 74L55.8944 73.5528L55.618 73H55V74ZM56 76H57V75.7639L56.8944 75.5528L56 76ZM56 85V86H57V85H56ZM16 85H15V86H16V85ZM16 77L15.2929 76.2929L15 76.5858V77H16ZM17 76V75H16.5858L16.2929 75.2929L17 76ZM32 76V77H33V76H32ZM140 112V111H139.049L139.001 111.95L140 112ZM148 112L148.707 111.293L148.414 111H148V112ZM149 113H150V112.586L149.707 112.293L149 113ZM149 130L149.949 130.316L150 130.162V130H149ZM146 139L146.781 139.625L146.892 139.485L146.949 139.316L146 139ZM142 144L142.447 144.894L142.644 144.796L142.781 144.625L142 144ZM136 147V148H136.236L136.447 147.894L136 147ZM113 147H112V148H113V147ZM113 139L112.95 138.001L112 138.049V139H113ZM133 138L133.05 138.999L133.3 138.986L133.514 138.857L133 138ZM138 135L138.514 135.857L138.832 135.667L138.949 135.316L138 135ZM139 132L139.949 132.316L139.992 132.187L139.999 132.05L139 132ZM113 0V-1H112V0H113ZM137 0L137.6 -0.8L137.333 -1H137V0ZM145 6L145.894 5.55279L145.789 5.34164L145.6 5.2L145 6ZM148 12L148.986 11.8356L148.962 11.6873L148.894 11.5528L148 12ZM149 18H150V17.9172L149.986 17.8356L149 18ZM149 34L149.707 34.7071L150 34.4142V34H149ZM148 35V36H148.414L148.707 35.7071L148 35ZM140 35L139.001 35.0499L139.049 36H140V35ZM139 15L139.999 14.9501L139.986 14.7001L139.857 14.4855L139 15ZM136 10L136.857 9.4855L136.708 9.2358L136.447 9.10557L136 10ZM134 9L134.447 8.10557L134.258 8.01117L134.048 8.00113L134 9ZM113 8H112V8.95351L112.952 8.99887L113 8ZM11 0V-1H10.7639L10.5528 -0.894427L11 0ZM35 0H36V-1H35V0ZM35 8L35.0476 8.99887L36 8.95351V8H35ZM14 9L13.9524 8.00113L13.5663 8.01952L13.2929 8.29289L14 9ZM9 14L8.29289 13.2929L8.01952 13.5663L8.00113 13.9524L9 14ZM8 35V36H8.95351L8.99887 35.0476L8 35ZM0 35H-1V36H0V35ZM0 11L-0.83205 10.4453L-1 10.6972V11H0ZM4 5L3.3753 4.21913L3.25407 4.31612L3.16795 4.4453L4 5ZM9 1L8.55279 0.105573L8.45803 0.152951L8.3753 0.219131L9 1ZM0 112V111H-1V112H0ZM8 112L8.99887 111.952L8.95351 111H8V112ZM9 133L8.00113 133.048L8.01574 133.354L8.2 133.6L9 133ZM12 137L11.2 137.6L11.3874 137.85L11.6838 137.949L12 137ZM15 138L14.6838 138.949L14.8135 138.992L14.9501 138.999L15 138ZM35 139H36V138.049L35.0499 138.001L35 139ZM35 147V148H36V147H35ZM12 147L11.5039 147.868L11.7344 148H12V147ZM5 143L4.18627 143.581L4.31362 143.76L4.50386 143.868L5 143ZM0 136H-1V136.32L-0.813733 136.581L0 136ZM107 61V60H106V61H107ZM116 61H117V60H116V61ZM116 76H115V77H116V76ZM131 76L131.707 75.2929L131.414 75H131V76ZM132 77H133V76.5858L132.707 76.2929L132 77ZM132 85V86H133V85H132ZM107 85H106V86H107V85ZM92 61V60H91V61H92ZM101 61H102V60H101V61ZM101 85V86H102V85H101ZM77 85H76V86H77V85ZM77 76V75H76V76H77ZM92 76V77H93V76H92ZM62 46V45H61V46H62ZM86 46H87V45H86V46ZM86 55V56H87V55H86ZM71 55V54H70V55H71ZM71 70V71H72V70H71ZM62 70H61V71H62V70ZM77 16V15H76V16H77ZM86 16H87V15H86V16ZM86 40V41H87V40H86ZM62 40H61V41H62V40ZM62 31V30H61V31H62ZM77 31V32H78V31H77ZM77 91V90H76.0644L76.0022 90.9335L77 91ZM86 91H87V90H86V91ZM86 115V116H87V115H86ZM62 115H61V116H62V115ZM62 106V105H61V106H62ZM76 106V107H76.9356L76.9978 106.067L76 106ZM62 91V90H61V91H62ZM71 91H72V90H71V91ZM71 100V101H72V100H71ZM62 100H61V101H62V100ZM62 76V75H61V76H62ZM71 76H72V75H71V76ZM71 85V86H72V85H71ZM62 85H61V86H62V85ZM77 61V60H76V61H77ZM86 61H87V60H86V61ZM86 70V71H87V70H86ZM77 70H76V71H77V70ZM47 61V60H46V61H47ZM56 61H57V60H56V61ZM56 70V71H57V70H56ZM47 70H46V71H47V70ZM108 106V105H107.586L107.293 105.293L108 106ZM116 106H117V105H116V106ZM116 115V116H117V115H116ZM107 115H106V116H107V115ZM107 107L106.293 106.293L106 106.586V107H107ZM123 61V60H122V61H123ZM131 61L131.707 60.2929L131.414 60H131V61ZM132 62H133V61.5858L132.707 61.2929L132 62ZM132 70V71H133V70H132ZM123 70H122V71H123V70ZM17 61V60H16.5858L16.2929 60.2929L17 61ZM25 61H26V60H25V61ZM25 70V71H26V70H25ZM16 70H15V71H16V70ZM16 62L15.2929 61.2929L15 61.5858V62H16ZM107 31V30H106V31H107ZM116 31H117V30H116V31ZM116 40V41H117V40H116ZM108 40L107.293 40.7071L107.586 41H108V40ZM107 39H106V39.4142L106.293 39.7071L107 39ZM32 31V30H31V31H32ZM41 31H42V30H41V31ZM41 39L41.7071 39.7071L42 39.4142V39H41ZM40 40V41H40.4142L40.7071 40.7071L40 40ZM32 40H31V41H32V40ZM62 16V15H61V16H62ZM71 16H72V15H71V16ZM71 24L71.7071 24.7071L72 24.4142V24H71ZM70 25V26H70.4142L70.7071 25.7071L70 25ZM62 25H61V26H62V25ZM32 106V105H31V106H32ZM40 106L40.7071 105.293L40.4142 105H40V106ZM41 107H42V106.586L41.7071 106.293L41 107ZM41 114L41.7071 114.707L42 114.414V114H41ZM40 115V116H40.4142L40.7071 115.707L40 115ZM32 115H31V116H32V115ZM26 101V100H25V101H26ZM46 101H47V100H46V101ZM46 115V116H47V115H46ZM45 115H44V116H45V115ZM45 102H46V101H45V102ZM27 102V101H25.9429L26.0015 102.055L27 102ZM28 120V121H29.0571L28.9985 119.945L28 120ZM26 120H25V121H26V120ZM93 89V88H92V89H93ZM131 89H132V88H131V89ZM131 90V91H132V90H131ZM93 90H92V91H93V90ZM17 89V88H16V89H17ZM55 89H56V88H55V89ZM55 90V91H56V90H55ZM17 90H16V91H17V90ZM17 86V85H16V86H17ZM55 86H56V85H55V86ZM55 87V88H56V87H55ZM17 87H16V88H17V87ZM90 92V91H89V92H90ZM91 92H92V91H91V92ZM91 129V130H92V129H91ZM90 129H89V130H90V129ZM90 17V16H89V17H90ZM91 17H92V16H91V17ZM91 54V55H92V54H91ZM90 54H89V55H90V54ZM17 56V55H16V56H17ZM51 56H52V55H51V56ZM51 57V58H52V57H51ZM17 57H16V58H17V57ZM75 16V15H74V16H75ZM76 16H77V15H76V16ZM76 30V31H77V30H76ZM62 30H61V31H62V30ZM62 29V28H61V29H62ZM75 29V30H76V29H75ZM90 62V61H89V62H90ZM91 62H92V61H91V62ZM91 75V76H92V75H91ZM78 75H77V76H78V75ZM78 74V73H77V74H78ZM90 74V75H91V74H90ZM62 116V115H61V116H62ZM86 116H87V115H86V116ZM86 117V118H87V117H86ZM62 117H61V118H62V117ZM102 61V60H101V61H102ZM103 61H104V60H103V61ZM103 85V86H104V85H103ZM102 85H101V86H102V85ZM60 46V45H59V46H60ZM61 46H62V45H61V46ZM61 70V71H62V70H61ZM60 70H59V71H60V70ZM62 44V43H61V44H62ZM86 44H87V43H86V44ZM86 45V46H87V45H86ZM62 45H61V46H62V45ZM87 92V91H86V92H87ZM88 92H89V91H88V92ZM88 115V116H89V115H88ZM87 115H86V116H87V115ZM108 86V85H107V86H108ZM131 86H132V85H131V86ZM131 87V88H132V87H131ZM108 87H107V88H108V87ZM78 86V85H77V86H78ZM101 86H102V85H101V86ZM101 87V88H102V87H101ZM78 87H77V88H78V87ZM72 56V55H71V56H72ZM83 56H84V55H83V56ZM83 57V58H84V57H83ZM73 57V56H72V57H73ZM73 69V70H74V69H73ZM72 69H71V70H72V69ZM87 16V15H86V16H87ZM88 16H89V15H88V16ZM88 39V40H89V39H88ZM87 39H86V40H87V39ZM113 137V136H112V137H113ZM133 137H134V136H133V137ZM113 138H112V139H113V138ZM9 112V111H8V112H9ZM10 112H11V111H10V112ZM10 132V133H11V132H10ZM9 132H8V133H9V132ZM113 9V8H112V9H113ZM133 9H134V8H133V9ZM133 10V11H134V10H133ZM113 10H112V11H113V10ZM15 9V8H14V9H15ZM35 9H36V8H35V9ZM35 10V11H36V10H35ZM15 10H14V11H15V10ZM16 137V136H15V137H16ZM35 137H36V136H35V137ZM35 138V139H36V138H35ZM16 138H15V139H16V138ZM138 113V112H137V113H138ZM139 113H140V112H139V113ZM138 132H137V133H138V132ZM138 15V14H137V15H138ZM139 34V35H140V34H139ZM138 34H137V35H138V34ZM9 15V14H8V15H9ZM10 15H11V14H10V15ZM10 34V35H11V34H10ZM9 34H8V35H9V34ZM117 74V73H116V74H117ZM131 74H132V73H131V74ZM131 75V76H132V75H131ZM117 75H116V76H117V75ZM17 74V73H16V74H17ZM31 74H32V73H31V74ZM31 75V76H32V75H31ZM17 75H16V76H17V75ZM75 92V91H74V92H75ZM76 92H77V91H76V92ZM76 105V106H77V105H76ZM75 105H74V106H75V105ZM62 101V100H61V101H62ZM71 101H72V100H71V101ZM71 102V103H72V102H71ZM62 102H61V103H62V102ZM111 139V138H110V139H111ZM112 139H113V138H112V139ZM112 147V148H113V147H112ZM111 147H110V148H111V147ZM36 139V138H35V139H36ZM37 139H38V138H37V139ZM37 147V148H38V147H37ZM36 147H35V148H36V147ZM87 122V121H86V122H87ZM88 122H89V121H88V122ZM88 130V131H89V130H88ZM87 130H86V131H87V130ZM108 116V115H107V116H108ZM116 116H117V115H116V116ZM116 117V118H117V117H116ZM108 117H107V118H108V117ZM47 116V115H46V116H47ZM55 116H56V115H55V116ZM55 117V118H56V117H55ZM47 117H46V118H47V117ZM32 116V115H31V116H32ZM40 116H41V115H40V116ZM40 117V118H41V117H40ZM32 117H31V118H32V117ZM140 110V109H139V110H140ZM148 110H149V109H148V110ZM148 111V112H149V111H148ZM140 111H139V112H140V111ZM0 110V109H-1V110H0ZM8 110H9V109H8V110ZM8 111V112H9V111H8ZM0 111H-1V112H0V111ZM60 107V106H59V107H60ZM61 107H62V106H61V107ZM61 115V116H62V115H61ZM60 115H59V116H60V115ZM72 92V91H71V92H72ZM73 92H74V91H73V92ZM73 100V101H74V100H73ZM72 100H71V101H72V100ZM60 92V91H59V92H60ZM61 92H62V91H61V92ZM61 100V101H62V100H61ZM60 100H59V101H60V100ZM62 86V85H61V86H62ZM70 86H71V85H70V86ZM70 87V88H71V87H70ZM62 87H61V88H62V87ZM60 77V76H59V77H60ZM61 77H62V76H61V77ZM61 85V86H62V85H61ZM60 85H59V86H60V85ZM123 71V70H122V71H123ZM131 71H132V70H131V71ZM131 72V73H132V72H131ZM123 72H122V73H123V72ZM62 71V70H61V71H62ZM70 71H71V70H70V71ZM70 72V73H71V72H70ZM62 72H61V73H62V72ZM47 71V70H46V71H47ZM55 71H56V70H55V71ZM55 72V73H56V72H55ZM47 72H46V73H47V72ZM17 71V70H16V71H17ZM25 71H26V70H25V71ZM25 72V73H26V72H25ZM17 72H16V73H17V72ZM45 62V61H44V62H45ZM46 62H47V61H46V62ZM46 70V71H47V70H46ZM45 70H44V71H45V70ZM26 61V60H25V61H26ZM27 61H28V60H27V61ZM27 69V70H28V69H27ZM26 69H25V70H26V69ZM123 59V58H122V59H123ZM131 59H132V58H131V59ZM131 60V61H132V60H131ZM123 60H122V61H123V60ZM108 59V58H107V59H108ZM116 59H117V58H116V59ZM116 60V61H117V60H116ZM108 60H107V61H108V60ZM93 59V58H92V59H93ZM101 59H102V58H101V59ZM101 60V61H102V60H101ZM93 60H92V61H93V60ZM47 59V58H46V59H47ZM55 59H56V58H55V59ZM55 60V61H56V60H55ZM47 60H46V61H47V60ZM32 59V58H31V59H32ZM40 59H41V58H40V59ZM40 60V61H41V60H40ZM32 60H31V61H32V60ZM17 59V58H16V59H17ZM25 59H26V58H25V59ZM25 60V61H26V60H25ZM17 60H16V61H17V60ZM87 46V45H86V46H87ZM88 46H89V45H88V46ZM88 54V55H89V54H88ZM87 54H86V55H87V54ZM60 31V30H59V31H60ZM61 31H62V30H61V31ZM61 39V40H62V39H61ZM60 39H59V40H60V39ZM108 29V28H107V29H108ZM116 29H117V28H116V29ZM116 30V31H117V30H116ZM108 30H107V31H108V30ZM32 29V28H31V29H32ZM40 29H41V28H40V29ZM40 30V31H41V30H40ZM32 30H31V31H32V30ZM72 16V15H71V16H72ZM73 16H74V15H73V16ZM73 24V25H74V24H73ZM72 24H71V25H72V24ZM60 16V15H59V16H60ZM61 16H62V15H61V16ZM61 24V25H62V24H61ZM60 24H59V25H60V24ZM111 0V-1H110V0H111ZM112 0H113V-1H112V0ZM112 8V9H113V8H112ZM111 8H110V9H111V8ZM78 89V88H77V89H78ZM85 89H86V88H85V89ZM85 90V91H86V90H85ZM78 90H77V91H78V90ZM75 77V76H74V77H75ZM76 77H77V76H76V77ZM76 84V85H77V84H76ZM75 84H74V85H75V84ZM72 77V76H71V77H72ZM73 77H74V76H73V77ZM73 84V85H74V84H73ZM72 84H71V85H72V84ZM63 74V73H62V74H63ZM70 74H71V73H70V74ZM70 75V76H71V75H70ZM63 75H62V76H63V75ZM78 71V70H77V71H78ZM85 71H86V70H85V71ZM85 72V73H86V72H85ZM78 72H77V73H78V72ZM87 62V61H86V62H87ZM88 62H89V61H88V62ZM88 69V70H89V69H88ZM87 69H86V70H87V69ZM75 62V61H74V62H75ZM76 62H77V61H76V62ZM76 69V70H77V69H76ZM75 69H74V70H75V69ZM78 59V58H77V59H78ZM85 59H86V58H85V59ZM85 60V61H86V60H85ZM78 60H77V61H78V60ZM141 36V35H140V36H141ZM148 36H149V35H148V36ZM148 37V38H149V37H148ZM141 37H140V38H141V37ZM0 36V35H-1V36H0ZM7 36H8V35H7V36ZM7 37V38H8V37H7ZM0 37H-1V38H0V37ZM36 0V-1H35V0H36ZM37 0H38V-1H37V0ZM37 7V8H38V7H37ZM36 7H35V8H36V7ZM63 89V88H62V89H63ZM69 89H70V88H69V89ZM69 90V91H70V90H69ZM63 90H62V91H63V90ZM57 62V61H56V62H57ZM58 62H59V61H58V62ZM58 68V69H59V68H58ZM57 68H56V69H57V68ZM57 47V46H56V47H57ZM58 47H59V46H58V47ZM58 53V54H59V53H58ZM57 53H56V54H57V53ZM17 92H55V90H17V92ZM54.2929 91.7071L55.2929 92.7071L56.7071 91.2929L55.7071 90.2929L54.2929 91.7071ZM55 92V115H57V92H55ZM56 114H47V116H56V114ZM48 115V100H46V115H48ZM47 99H25V101H47V99ZM24.0011 100.048L25.0011 121.048L26.9989 120.952L25.9989 99.9524L24.0011 100.048ZM26 122H85V120H26V122ZM84.2929 121.707L85.2929 122.707L86.7071 121.293L85.7071 120.293L84.2929 121.707ZM85 122V130H87V122H85ZM86 129H16V131H86V129ZM17 130V92H15V130H17ZM16.7071 92.7071L17.7071 91.7071L16.2929 90.2929L15.2929 91.2929L16.7071 92.7071ZM16 17H56V15H16V17ZM55 16V54H57V16H55ZM55.2929 53.2929L54.2929 54.2929L55.7071 55.7071L56.7071 54.7071L55.2929 53.2929ZM55 54H17V56H55V54ZM17.7071 54.2929L16.7071 53.2929L15.2929 54.7071L16.2929 55.7071L17.7071 54.2929ZM17 54V16H15V54H17ZM24 24V46H26V24H24ZM25 47H47V45H25V47ZM48 46V24H46V46H48ZM47 23H46V25H47V23ZM45 24V45H47V24H45ZM46 44H26V46H46V44ZM27 45V26H25V45H27ZM25.2929 26.7071L26.2929 27.7071L27.7071 26.2929L26.7071 25.2929L25.2929 26.7071ZM26 27V44H28V27H26ZM27 45H45V43H27V45ZM46 44V25H44V44H46ZM45.0499 24.0012L25.0499 23.0012L24.9501 24.9988L44.9501 25.9988L45.0499 24.0012ZM92 92H131V90H92V92ZM130.293 91.7071L131.293 92.7071L132.707 91.2929L131.707 90.2929L130.293 91.7071ZM131 92V130H133V92H131ZM132 129H92V131H132V129ZM93 130V91H91V130H93ZM100 100V122H102V100H100ZM101 123H102V121H101V123ZM103 122V101H101V122H103ZM101.293 101.707L102.293 102.707L103.707 101.293L102.707 100.293L101.293 101.707ZM102 102V121H104V102H102ZM103 122H123V120H103V122ZM124 121V100H122V121H124ZM123 99H101V101H123V99ZM92 17H132V15H92V17ZM131 16V54H133V16H131ZM131.293 53.2929L130.293 54.2929L131.707 55.7071L132.707 54.7071L131.293 53.2929ZM131 54H93V56H131V54ZM93.7071 54.2929L92.7071 53.2929L91.2929 54.7071L92.2929 55.7071L93.7071 54.2929ZM93 54V16H91V54H93ZM100 24V46H102V24H100ZM101 47H123V45H101V47ZM124 46V25H122V46H124ZM123 24H103V26H123V24ZM102 25V44H104V25H102ZM102.293 43.2929L101.293 44.2929L102.707 45.7071L103.707 44.7071L102.293 43.2929ZM103 45V24H101V45H103ZM102 23H101V25H102V23ZM32 62H40V60H32V62ZM39.2929 61.7071L40.2929 62.7071L41.7071 61.2929L40.7071 60.2929L39.2929 61.7071ZM40 62V74H42V62H40ZM41 75H55V73H41V75ZM54.1056 74.4472L55.1056 76.4472L56.8944 75.5528L55.8944 73.5528L54.1056 74.4472ZM55 76V85H57V76H55ZM56 84H16V86H56V84ZM17 85V77H15V85H17ZM16.7071 77.7071L17.7071 76.7071L16.2929 75.2929L15.2929 76.2929L16.7071 77.7071ZM17 77H32V75H17V77ZM33 76V61H31V76H33ZM140 113H148V111H140V113ZM147.293 112.707L148.293 113.707L149.707 112.293L148.707 111.293L147.293 112.707ZM148 113V130H150V113H148ZM148.051 129.684L145.051 138.684L146.949 139.316L149.949 130.316L148.051 129.684ZM145.219 138.375L141.219 143.375L142.781 144.625L146.781 139.625L145.219 138.375ZM141.553 143.106L135.553 146.106L136.447 147.894L142.447 144.894L141.553 143.106ZM136 146H113V148H136V146ZM114 147V139H112V147H114ZM113.05 139.999L133.05 138.999L132.95 137.001L112.95 138.001L113.05 139.999ZM133.514 138.857L138.514 135.857L137.486 134.143L132.486 137.143L133.514 138.857ZM138.949 135.316L139.949 132.316L138.051 131.684L137.051 134.684L138.949 135.316ZM139.999 132.05L140.999 112.05L139.001 111.95L138.001 131.95L139.999 132.05ZM113 1H137V-1H113V1ZM136.4 0.8L144.4 6.8L145.6 5.2L137.6 -0.8L136.4 0.8ZM144.106 6.44721L147.106 12.4472L148.894 11.5528L145.894 5.55279L144.106 6.44721ZM147.014 12.1644L148.014 18.1644L149.986 17.8356L148.986 11.8356L147.014 12.1644ZM148 18V34H150V18H148ZM148.293 33.2929L147.293 34.2929L148.707 35.7071L149.707 34.7071L148.293 33.2929ZM148 34H140V36H148V34ZM140.999 34.9501L139.999 14.9501L138.001 15.0499L139.001 35.0499L140.999 34.9501ZM139.857 14.4855L136.857 9.4855L135.143 10.5145L138.143 15.5145L139.857 14.4855ZM136.447 9.10557L134.447 8.10557L133.553 9.89443L135.553 10.8944L136.447 9.10557ZM134.048 8.00113L113.048 7.00113L112.952 8.99887L133.952 9.99887L134.048 8.00113ZM114 8V0H112V8H114ZM11 1H35V-1H11V1ZM34 0V8H36V0H34ZM34.9524 7.00113L13.9524 8.00113L14.0476 9.99887L35.0476 8.99887L34.9524 7.00113ZM13.2929 8.29289L8.29289 13.2929L9.70711 14.7071L14.7071 9.70711L13.2929 8.29289ZM8.00113 13.9524L7.00113 34.9524L8.99887 35.0476L9.99887 14.0476L8.00113 13.9524ZM8 34H0V36H8V34ZM1 35V11H-1V35H1ZM0.83205 11.5547L4.83205 5.5547L3.16795 4.4453L-0.83205 10.4453L0.83205 11.5547ZM4.6247 5.78087L9.6247 1.78087L8.3753 0.219131L3.3753 4.21913L4.6247 5.78087ZM9.44721 1.89443L11.4472 0.894427L10.5528 -0.894427L8.55279 0.105573L9.44721 1.89443ZM0 113H8V111H0V113ZM7.00113 112.048L8.00113 133.048L9.99887 132.952L8.99887 111.952L7.00113 112.048ZM8.2 133.6L11.2 137.6L12.8 136.4L9.8 132.4L8.2 133.6ZM11.6838 137.949L14.6838 138.949L15.3162 137.051L12.3162 136.051L11.6838 137.949ZM14.9501 138.999L34.9501 139.999L35.0499 138.001L15.0499 137.001L14.9501 138.999ZM34 139V147H36V139H34ZM35 146H12V148H35V146ZM12.4961 146.132L5.49614 142.132L4.50386 143.868L11.5039 147.868L12.4961 146.132ZM5.81373 142.419L0.813733 135.419L-0.813733 136.581L4.18627 143.581L5.81373 142.419ZM1 136V112H-1V136H1ZM107 62H116V60H107V62ZM115 61V76H117V61H115ZM116 77H131V75H116V77ZM130.293 76.7071L131.293 77.7071L132.707 76.2929L131.707 75.2929L130.293 76.7071ZM131 77V85H133V77H131ZM132 84H107V86H132V84ZM108 85V61H106V85H108ZM92 62H101V60H92V62ZM100 61V85H102V61H100ZM101 84H77V86H101V84ZM78 85V76H76V85H78ZM77 77H92V75H77V77ZM93 76V61H91V76H93ZM62 47H86V45H62V47ZM85 46V55H87V46H85ZM86 54H71V56H86V54ZM70 55V70H72V55H70ZM71 69H62V71H71V69ZM63 70V46H61V70H63ZM77 17H86V15H77V17ZM85 16V40H87V16H85ZM86 39H62V41H86V39ZM63 40V31H61V40H63ZM62 32H77V30H62V32ZM78 31V16H76V31H78ZM77 92H86V90H77V92ZM85 91V115H87V91H85ZM86 114H62V116H86V114ZM63 115V106H61V115H63ZM62 107H76V105H62V107ZM76.9978 106.067L77.9978 91.0665L76.0022 90.9335L75.0022 105.933L76.9978 106.067ZM62 92H71V90H62V92ZM70 91V100H72V91H70ZM71 99H62V101H71V99ZM63 100V91H61V100H63ZM62 77H71V75H62V77ZM70 76V85H72V76H70ZM71 84H62V86H71V84ZM63 85V76H61V85H63ZM77 62H86V60H77V62ZM85 61V70H87V61H85ZM86 69H77V71H86V69ZM78 70V61H76V70H78ZM47 62H56V60H47V62ZM55 61V70H57V61H55ZM56 69H47V71H56V69ZM48 70V61H46V70H48ZM108 107H116V105H108V107ZM115 106V115H117V106H115ZM116 114H107V116H116V114ZM108 115V107H106V115H108ZM107.707 107.707L108.707 106.707L107.293 105.293L106.293 106.293L107.707 107.707ZM123 62H131V60H123V62ZM130.293 61.7071L131.293 62.7071L132.707 61.2929L131.707 60.2929L130.293 61.7071ZM131 62V70H133V62H131ZM132 69H123V71H132V69ZM124 70V61H122V70H124ZM17 62H25V60H17V62ZM24 61V70H26V61H24ZM25 69H16V71H25V69ZM17 70V62H15V70H17ZM16.7071 62.7071L17.7071 61.7071L16.2929 60.2929L15.2929 61.2929L16.7071 62.7071ZM107 32H116V30H107V32ZM115 31V40H117V31H115ZM116 39H108V41H116V39ZM108.707 39.2929L107.707 38.2929L106.293 39.7071L107.293 40.7071L108.707 39.2929ZM108 39V31H106V39H108ZM32 32H41V30H32V32ZM40 31V39H42V31H40ZM40.2929 38.2929L39.2929 39.2929L40.7071 40.7071L41.7071 39.7071L40.2929 38.2929ZM40 39H32V41H40V39ZM33 40V31H31V40H33ZM62 17H71V15H62V17ZM70 16V24H72V16H70ZM70.2929 23.2929L69.2929 24.2929L70.7071 25.7071L71.7071 24.7071L70.2929 23.2929ZM70 24H62V26H70V24ZM63 25V16H61V25H63ZM32 107H40V105H32V107ZM39.2929 106.707L40.2929 107.707L41.7071 106.293L40.7071 105.293L39.2929 106.707ZM40 107V114H42V107H40ZM40.2929 113.293L39.2929 114.293L40.7071 115.707L41.7071 114.707L40.2929 113.293ZM40 114H32V116H40V114ZM33 115V106H31V115H33ZM26 102H46V100H26V102ZM45 101V115H47V101H45ZM46 114H45V116H46V114ZM46 115V102H44V115H46ZM45 101H27V103H45V101ZM26.0015 102.055L27.0015 120.055L28.9985 119.945L27.9985 101.945L26.0015 102.055ZM28 119H26V121H28V119ZM27 120V101H25V120H27ZM93 90H131V88H93V90ZM130 89V90H132V89H130ZM131 89H93V91H131V89ZM94 90V89H92V90H94ZM17 90H55V88H17V90ZM54 89V90H56V89H54ZM55 89H17V91H55V89ZM18 90V89H16V90H18ZM17 87H55V85H17V87ZM54 86V87H56V86H54ZM55 86H17V88H55V86ZM18 87V86H16V87H18ZM90 93H91V91H90V93ZM90 92V129H92V92H90ZM91 128H90V130H91V128ZM91 129V92H89V129H91ZM90 18H91V16H90V18ZM90 17V54H92V17H90ZM91 53H90V55H91V53ZM91 54V17H89V54H91ZM17 57H51V55H17V57ZM50 56V57H52V56H50ZM51 56H17V58H51V56ZM18 57V56H16V57H18ZM75 17H76V15H75V17ZM75 16V30H77V16H75ZM76 29H62V31H76V29ZM63 30V29H61V30H63ZM62 30H75V28H62V30ZM76 29V16H74V29H76ZM90 63H91V61H90V63ZM90 62V75H92V62H90ZM91 74H78V76H91V74ZM79 75V74H77V75H79ZM78 75H90V73H78V75ZM91 74V62H89V74H91ZM62 117H86V115H62V117ZM85 116V117H87V116H85ZM86 116H62V118H86V116ZM63 117V116H61V117H63ZM102 62H103V60H102V62ZM102 61V85H104V61H102ZM103 84H102V86H103V84ZM103 85V61H101V85H103ZM60 47H61V45H60V47ZM60 46V70H62V46H60ZM61 69H60V71H61V69ZM61 70V46H59V70H61ZM62 45H86V43H62V45ZM85 44V45H87V44H85ZM86 44H62V46H86V44ZM63 45V44H61V45H63ZM87 93H88V91H87V93ZM87 92V115H89V92H87ZM88 114H87V116H88V114ZM88 115V92H86V115H88ZM108 87H131V85H108V87ZM130 86V87H132V86H130ZM131 86H108V88H131V86ZM109 87V86H107V87H109ZM78 87H101V85H78V87ZM100 86V87H102V86H100ZM101 86H78V88H101V86ZM79 87V86H77V87H79ZM72 57H83V55H72V57ZM82 56V57H84V56H82ZM83 56H73V58H83V56ZM72 57V69H74V57H72ZM73 68H72V70H73V68ZM73 69V56H71V69H73ZM87 17H88V15H87V17ZM87 16V39H89V16H87ZM88 38H87V40H88V38ZM88 39V16H86V39H88ZM113 138H133V136H113V138ZM132 137V138H134V137H132ZM133 137H113V139H133V137ZM114 138V137H112V138H114ZM9 113H10V111H9V113ZM9 112V132H11V112H9ZM10 131H9V133H10V131ZM10 132V112H8V132H10ZM113 10H133V8H113V10ZM132 9V10H134V9H132ZM133 9H113V11H133V9ZM114 10V9H112V10H114ZM15 10H35V8H15V10ZM34 9V10H36V9H34ZM35 9H15V11H35V9ZM16 10V9H14V10H16ZM16 138H35V136H16V138ZM34 137V138H36V137H34ZM35 137H16V139H35V137ZM17 138V137H15V138H17ZM138 114H139V112H138V114ZM138 113V132H140V113H138ZM139 131H138V133H139V131ZM139 132V113H137V132H139ZM138 16H139V14H138V16ZM138 15V34H140V15H138ZM139 33H138V35H139V33ZM139 34V15H137V34H139ZM9 16H10V14H9V16ZM9 15V34H11V15H9ZM10 33H9V35H10V33ZM10 34V15H8V34H10ZM117 75H131V73H117V75ZM130 74V75H132V74H130ZM131 74H117V76H131V74ZM118 75V74H116V75H118ZM17 75H31V73H17V75ZM30 74V75H32V74H30ZM31 74H17V76H31V74ZM18 75V74H16V75H18ZM75 93H76V91H75V93ZM75 92V105H77V92H75ZM76 104H75V106H76V104ZM76 105V92H74V105H76ZM62 102H71V100H62V102ZM70 101V102H72V101H70ZM71 101H62V103H71V101ZM63 102V101H61V102H63ZM111 140H112V138H111V140ZM111 139V147H113V139H111ZM112 146H111V148H112V146ZM112 147V139H110V147H112ZM36 140H37V138H36V140ZM36 139V147H38V139H36ZM37 146H36V148H37V146ZM37 147V139H35V147H37ZM87 123H88V121H87V123ZM87 122V130H89V122H87ZM88 129H87V131H88V129ZM88 130V122H86V130H88ZM108 117H116V115H108V117ZM115 116V117H117V116H115ZM116 116H108V118H116V116ZM109 117V116H107V117H109ZM47 117H55V115H47V117ZM54 116V117H56V116H54ZM55 116H47V118H55V116ZM48 117V116H46V117H48ZM32 117H40V115H32V117ZM39 116V117H41V116H39ZM40 116H32V118H40V116ZM33 117V116H31V117H33ZM140 111H148V109H140V111ZM147 110V111H149V110H147ZM148 110H140V112H148V110ZM141 111V110H139V111H141ZM0 111H8V109H0V111ZM7 110V111H9V110H7ZM8 110H0V112H8V110ZM1 111V110H-1V111H1ZM60 108H61V106H60V108ZM60 107V115H62V107H60ZM61 114H60V116H61V114ZM61 115V107H59V115H61ZM72 93H73V91H72V93ZM72 92V100H74V92H72ZM73 99H72V101H73V99ZM73 100V92H71V100H73ZM60 93H61V91H60V93ZM60 92V100H62V92H60ZM61 99H60V101H61V99ZM61 100V92H59V100H61ZM62 87H70V85H62V87ZM69 86V87H71V86H69ZM70 86H62V88H70V86ZM63 87V86H61V87H63ZM60 78H61V76H60V78ZM60 77V85H62V77H60ZM61 84H60V86H61V84ZM61 85V77H59V85H61ZM123 72H131V70H123V72ZM130 71V72H132V71H130ZM131 71H123V73H131V71ZM124 72V71H122V72H124ZM62 72H70V70H62V72ZM69 71V72H71V71H69ZM70 71H62V73H70V71ZM63 72V71H61V72H63ZM47 72H55V70H47V72ZM54 71V72H56V71H54ZM55 71H47V73H55V71ZM48 72V71H46V72H48ZM17 72H25V70H17V72ZM24 71V72H26V71H24ZM25 71H17V73H25V71ZM18 72V71H16V72H18ZM45 63H46V61H45V63ZM45 62V70H47V62H45ZM46 69H45V71H46V69ZM46 70V62H44V70H46ZM26 62H27V60H26V62ZM26 61V69H28V61H26ZM27 68H26V70H27V68ZM27 69V61H25V69H27ZM123 60H131V58H123V60ZM130 59V60H132V59H130ZM131 59H123V61H131V59ZM124 60V59H122V60H124ZM108 60H116V58H108V60ZM115 59V60H117V59H115ZM116 59H108V61H116V59ZM109 60V59H107V60H109ZM93 60H101V58H93V60ZM100 59V60H102V59H100ZM101 59H93V61H101V59ZM94 60V59H92V60H94ZM47 60H55V58H47V60ZM54 59V60H56V59H54ZM55 59H47V61H55V59ZM48 60V59H46V60H48ZM32 60H40V58H32V60ZM39 59V60H41V59H39ZM40 59H32V61H40V59ZM33 60V59H31V60H33ZM17 60H25V58H17V60ZM24 59V60H26V59H24ZM25 59H17V61H25V59ZM18 60V59H16V60H18ZM87 47H88V45H87V47ZM87 46V54H89V46H87ZM88 53H87V55H88V53ZM88 54V46H86V54H88ZM60 32H61V30H60V32ZM60 31V39H62V31H60ZM61 38H60V40H61V38ZM61 39V31H59V39H61ZM108 30H116V28H108V30ZM115 29V30H117V29H115ZM116 29H108V31H116V29ZM109 30V29H107V30H109ZM32 30H40V28H32V30ZM39 29V30H41V29H39ZM40 29H32V31H40V29ZM33 30V29H31V30H33ZM72 17H73V15H72V17ZM72 16V24H74V16H72ZM73 23H72V25H73V23ZM73 24V16H71V24H73ZM60 17H61V15H60V17ZM60 16V24H62V16H60ZM61 23H60V25H61V23ZM61 24V16H59V24H61ZM111 1H112V-1H111V1ZM111 0V8H113V0H111ZM112 7H111V9H112V7ZM112 8V0H110V8H112ZM78 90H85V88H78V90ZM84 89V90H86V89H84ZM85 89H78V91H85V89ZM79 90V89H77V90H79ZM75 78H76V76H75V78ZM75 77V84H77V77H75ZM76 83H75V85H76V83ZM76 84V77H74V84H76ZM72 78H73V76H72V78ZM72 77V84H74V77H72ZM73 83H72V85H73V83ZM73 84V77H71V84H73ZM63 75H70V73H63V75ZM69 74V75H71V74H69ZM70 74H63V76H70V74ZM64 75V74H62V75H64ZM78 72H85V70H78V72ZM84 71V72H86V71H84ZM85 71H78V73H85V71ZM79 72V71H77V72H79ZM87 63H88V61H87V63ZM87 62V69H89V62H87ZM88 68H87V70H88V68ZM88 69V62H86V69H88ZM75 63H76V61H75V63ZM75 62V69H77V62H75ZM76 68H75V70H76V68ZM76 69V62H74V69H76ZM78 60H85V58H78V60ZM84 59V60H86V59H84ZM85 59H78V61H85V59ZM79 60V59H77V60H79ZM141 37H148V35H141V37ZM147 36V37H149V36H147ZM148 36H141V38H148V36ZM142 37V36H140V37H142ZM0 37H7V35H0V37ZM6 36V37H8V36H6ZM7 36H0V38H7V36ZM1 37V36H-1V37H1ZM36 1H37V-1H36V1ZM36 0V7H38V0H36ZM37 6H36V8H37V6ZM37 7V0H35V7H37ZM63 90H69V88H63V90ZM68 89V90H70V89H68ZM69 89H63V91H69V89ZM64 90V89H62V90H64ZM57 63H58V61H57V63ZM57 62V68H59V62H57ZM58 67H57V69H58V67ZM58 68V62H56V68H58ZM57 48H58V46H57V48ZM57 47V53H59V47H57ZM58 52H57V54H58V52ZM58 53V47H56V53H58Z" fill="black" mask="url(#path-1-inside-1_52_3)"/>
</svg>
