<svg width="325" height="147" viewBox="0 0 325 147" fill="none" xmlns="http://www.w3.org/2000/svg">
<g clip-path="url(#clip0_39_394)">
<path d="M17 91H55L56 92V115H47V100H25L26 121H85L86 122V130H16V92L17 91Z" fill="white"/>
<path d="M16 16H56V54L55 55H17L16 54V16ZM25 24V46H47V24H46V45H26V26L27 27V44H45V25L25 24Z" fill="white"/>
<path d="M92 91H131L132 92V130H92V91ZM101 100V122H102V101L103 102V121H123V100H101Z" fill="white"/>
<path d="M92 16H132V54L131 55H93L92 54V16ZM101 24V46H123V25H103V44L102 45V24H101Z" fill="white"/>
<path d="M172 70H323L325 72L324 76L323 77H172L170 75L171 71L172 70Z" fill="white"/>
<path d="M181 0H222V5L221 6L181 7L180 44L178 46L174 45L173 44V9L177 3L181 0Z" fill="white"/>
<path d="M275 0H314L320 5L322 10V44L320 46L316 45L315 44L314 9L312 7L276 6L274 4L275 0Z" fill="white"/>
<path d="M318 102L321 103L322 105V137L319 143L314 147H275L274 142L276 141L312 140L314 138L315 104L318 102Z" fill="white"/>
<path d="M175 104L179 105L180 106L181 140L220 141L222 142V147H181L175 142L173 137V107L175 104Z" fill="white"/>
<path d="M32 61H40L41 62V74H55L56 76V85H16V77L17 76H32V61Z" fill="white"/>
<path d="M140 112H148L149 113V130L146 139L142 144L136 147H113V139L133 138L138 135L139 132L140 112Z" fill="white"/>
<path d="M113 0H137L145 6L148 12L149 18V34L148 35H140L139 15L136 10L134 9L113 8V0Z" fill="white"/>
<path d="M11 0H35V8L14 9L9 14L8 35H0V11L4 5L9 1L11 0Z" fill="white"/>
<path d="M0 112H8L9 133L12 137L15 138L35 139V147H12L5 143L0 136V112Z" fill="white"/>
<path d="M107 61H116V76H131L132 77V85H107V61Z" fill="white"/>
<path d="M92 61H101V85H77V76H92V61Z" fill="white"/>
<path d="M62 46H86V55H71V70H62V46Z" fill="white"/>
<path d="M77 16H86V40H62V31H77V16Z" fill="white"/>
<path d="M77 91H86V115H62V106H76L77 91Z" fill="white"/>
<path d="M172 78H323V79H172V78Z" fill="white"/>
<path d="M173 68H322V69H173V68Z" fill="white"/>
<path d="M62 91H71V100H62V91Z" fill="white"/>
<path d="M62 76H71V85H62V76Z" fill="white"/>
<path d="M77 61H86V70H77V61Z" fill="white"/>
<path d="M47 61H56V70H47V61Z" fill="white"/>
<path d="M108 106H116V115H107V107L108 106Z" fill="white"/>
<path d="M123 61H131L132 62V70H123V61Z" fill="white"/>
<path d="M17 61H25V70H16V62L17 61Z" fill="white"/>
<path d="M107 31H116V40H108L107 39V31Z" fill="white"/>
<path d="M32 31H41V39L40 40H32V31Z" fill="white"/>
<path d="M62 16H71V24L70 25H62V16Z" fill="white"/>
<path d="M32 106H40L41 107V114L40 115H32V106Z" fill="white"/>
<path d="M26 101H46V115H45V102H27L28 120H26V101Z" fill="white"/>
<path d="M93 89H131V90H93V89Z" fill="white"/>
<path d="M17 89H55V90H17V89Z" fill="white"/>
<path d="M17 86H55V87H17V86Z" fill="white"/>
<path d="M183 139H220V140H183V139Z" fill="white"/>
<path d="M90 92H91V129H90V92Z" fill="white"/>
<path d="M90 17H91V54H90V17Z" fill="white"/>
<path d="M183 7H220V8H183V7Z" fill="white"/>
<path d="M276 139H312V140H276V139Z" fill="white"/>
<path d="M276 7H312V8H276V7Z" fill="white"/>
<path d="M313 9H314V44H313V9Z" fill="white"/>
<path d="M181 9H182V44H181V9Z" fill="white"/>
<path d="M17 56H51V57H17V56Z" fill="white"/>
<path d="M313 105H314V138H313V105Z" fill="white"/>
<path d="M171 11H172V43H171V11Z" fill="white"/>
<path d="M181 107H182V138H181V107Z" fill="white"/>
<path d="M171 107H172V136H171V107Z" fill="white"/>
<path d="M75 16H76V30H62V29H75V16Z" fill="white"/>
<path d="M90 62H91V75H78V74H90V62Z" fill="white"/>
<path d="M62 116H86V117H62V116Z" fill="white"/>
<path d="M102 61H103V85H102V61Z" fill="white"/>
<path d="M60 46H61V70H60V46Z" fill="white"/>
<path d="M62 44H86V45H62V44Z" fill="white"/>
<path d="M87 92H88V115H87V92Z" fill="white"/>
<path d="M108 86H131V87H108V86Z" fill="white"/>
<path d="M78 86H101V87H78V86Z" fill="white"/>
<path d="M72 56H83V57H73V69H72V56Z" fill="white"/>
<path d="M87 16H88V39H87V16Z" fill="white"/>
<path d="M113 137H133V138H113V137Z" fill="white"/>
<path d="M9 112H10V132H9V112Z" fill="white"/>
<path d="M113 9H133V10H113V9Z" fill="white"/>
<path d="M15 9H35V10H15V9Z" fill="white"/>
<path d="M16 137H35V138H16V137Z" fill="white"/>
<path d="M138 113H139V132H138V113Z" fill="white"/>
<path d="M138 15H139V34H138V15Z" fill="white"/>
<path d="M9 15H10V34H9V15Z" fill="white"/>
<path d="M117 74H131V75H117V74Z" fill="white"/>
<path d="M17 74H31V75H17V74Z" fill="white"/>
<path d="M75 92H76V105H75V92Z" fill="white"/>
<path d="M62 101H71V102H62V101Z" fill="white"/>
<path d="M111 139H112V147H111V139Z" fill="white"/>
<path d="M36 139H37V147H36V139Z" fill="white"/>
<path d="M87 122H88V130H87V122Z" fill="white"/>
<path d="M108 116H116V117H108V116Z" fill="white"/>
<path d="M47 116H55V117H47V116Z" fill="white"/>
<path d="M32 116H40V117H32V116Z" fill="white"/>
<path d="M140 110H148V111H140V110Z" fill="white"/>
<path d="M0 110H8V111H0V110Z" fill="white"/>
<path d="M60 107H61V115H60V107Z" fill="white"/>
<path d="M72 92H73V100H72V92Z" fill="white"/>
<path d="M60 92H61V100H60V92Z" fill="white"/>
<path d="M62 86H70V87H62V86Z" fill="white"/>
<path d="M60 77H61V85H60V77Z" fill="white"/>
<path d="M123 71H131V72H123V71Z" fill="white"/>
<path d="M62 71H70V72H62V71Z" fill="white"/>
<path d="M47 71H55V72H47V71Z" fill="white"/>
<path d="M17 71H25V72H17V71Z" fill="white"/>
<path d="M45 62H46V70H45V62Z" fill="white"/>
<path d="M26 61H27V69H26V61Z" fill="white"/>
<path d="M123 59H131V60H123V59Z" fill="white"/>
<path d="M108 59H116V60H108V59Z" fill="white"/>
<path d="M93 59H101V60H93V59Z" fill="white"/>
<path d="M47 59H55V60H47V59Z" fill="white"/>
<path d="M32 59H40V60H32V59Z" fill="white"/>
<path d="M17 59H25V60H17V59Z" fill="white"/>
<path d="M87 46H88V54H87V46Z" fill="white"/>
<path d="M60 31H61V39H60V31Z" fill="white"/>
<path d="M108 29H116V30H108V29Z" fill="white"/>
<path d="M32 29H40V30H32V29Z" fill="white"/>
<path d="M72 16H73V24H72V16Z" fill="white"/>
<path d="M60 16H61V24H60V16Z" fill="white"/>
<path d="M111 0H112V8H111V0Z" fill="white"/>
<path d="M78 89H85V90H78V89Z" fill="white"/>
<path d="M75 77H76V84H75V77Z" fill="white"/>
<path d="M72 77H73V84H72V77Z" fill="white"/>
<path d="M63 74H70V75H63V74Z" fill="white"/>
<path d="M78 71H85V72H78V71Z" fill="white"/>
<path d="M87 62H88V69H87V62Z" fill="white"/>
<path d="M75 62H76V69H75V62Z" fill="white"/>
<path d="M78 59H85V60H78V59Z" fill="white"/>
<path d="M141 36H148V37H141V36Z" fill="white"/>
<path d="M0 36H7V37H0V36Z" fill="white"/>
<path d="M36 0H37V7H36V0Z" fill="white"/>
<path d="M63 89H69V90H63V89Z" fill="white"/>
<path d="M57 62H58V68H57V62Z" fill="white"/>
<path d="M57 47H58V53H57V47Z" fill="white"/>
</g>
<defs>
<clipPath id="clip0_39_394">
<rect width="325" height="147" fill="white"/>
</clipPath>
</defs>
</svg>
