<svg width="512" height="512" viewBox="0 0 512 512" fill="none" xmlns="http://www.w3.org/2000/svg">
<path d="M112.64 24.5759H143.36L149.504 28.6719L153.6 33.7919L154.624 35.8399V49.1519L159.744 50.1759L165.888 51.1999L175.104 43.0079L178.176 41.9839H190.464L198.656 46.0799L203.776 51.1999L207.872 55.2959L407.552 56.3199L417.792 62.4639L423.936 72.7039V272.384L431.104 273.408L439.296 279.552L443.392 287.744V400.384L439.296 408.576L431.104 414.72L423.936 415.744L424.96 424.96L437.248 431.104L443.392 438.272L447.488 447.488V464.896L441.344 476.16L433.152 483.328L424.96 487.424H407.552L395.264 481.28L388.096 473.088L385.024 464.896V455.68H104.448L96.256 451.584L89.088 443.392L88.064 440.32L87.04 207.872L80.896 212.992L77.824 214.016H65.536L57.344 209.92L52.224 204.8L45.056 197.632L41.984 190.464V178.176L46.08 171.008L52.224 163.84L49.152 154.624H36.864L30.72 151.552L25.6 145.408L24.576 143.36V112.64L28.672 106.496L33.792 102.4L36.864 101.376H49.152L51.2 94.2079L50.176 89.0879L43.008 80.8959L41.984 77.8239V65.5359L46.08 57.3439L50.176 55.2959L52.224 51.1999L58.368 45.0559L65.536 41.9839H77.824L84.992 46.0799L92.16 52.2239L98.304 49.1519H101.376V35.8399L105.472 29.6959L110.592 25.5999L112.64 24.5759ZM119.808 39.9359L117.76 40.9599L116.736 57.3439L111.616 62.4639L100.352 66.5599L91.136 70.6559L86.016 69.6319L77.824 62.4639L72.704 57.3439L68.608 59.3919L57.344 70.6559L59.392 74.7519L68.608 83.9679L70.656 88.0639L69.632 94.2079L63.488 107.52L60.416 114.688L57.344 116.736L40.96 117.76L39.936 118.784V136.192L40.96 138.24L57.344 139.264L62.464 144.384L66.56 155.648L70.656 164.864L69.632 169.984L62.464 178.176L57.344 183.296L59.392 187.392L70.656 198.656L74.752 196.608L83.968 187.392L88.064 185.344L94.208 186.368L107.52 192.512L114.688 195.584L116.736 198.656L117.76 215.04L118.784 216.064H136.192L138.24 215.04L139.264 198.656L144.384 193.536L155.648 189.44L164.864 185.344L169.984 186.368L178.176 193.536L183.296 198.656L187.392 196.608L198.656 185.344L196.608 181.248L187.392 172.032L185.344 168.96L186.368 161.792L192.512 148.48L195.584 141.312L198.656 139.264L215.04 138.24L216.064 137.216V119.808L215.04 117.76L198.656 116.736L193.536 111.616L188.416 98.3039L185.344 91.1359L186.368 86.0159L193.536 77.8239L198.656 72.7039L196.608 68.6079L185.344 57.3439L181.248 59.3919L172.032 68.6079L167.936 70.6559L161.792 69.6319L151.552 64.5119L142.336 61.4399L139.264 57.3439L138.24 40.9599L137.216 39.9359H119.808ZM214.016 71.6799L211.968 80.8959L202.752 91.1359L206.848 101.376L219.136 102.4L225.28 105.472L229.376 110.592L230.4 112.64V143.36L226.304 149.504L222.208 152.576L219.136 153.6L206.848 154.624L203.776 162.816L204.8 166.912L211.968 175.104L212.992 178.176V190.464L208.896 198.656L203.776 203.776L197.632 209.92L190.464 212.992H178.176L171.008 208.896L163.84 202.752L154.624 206.848L153.6 219.136L150.528 225.28L145.408 229.376L143.36 230.4H112.64L106.496 226.304L103.424 224.256V433.152L106.496 438.272L111.616 440.32H388.096L395.264 431.104L408.576 424.96V415.744L398.336 412.672L393.216 408.576L389.12 400.384V287.744L393.216 279.552L400.384 274.432L408.576 272.384V80.8959L406.528 75.7759L403.456 72.7039L399.36 71.6799H214.016ZM410.624 287.744L405.504 289.792L403.456 294.912V393.216L405.504 398.336L410.624 400.384H421.888L427.008 397.312L429.056 393.216V294.912L425.984 289.792L421.888 287.744H410.624ZM410.624 440.32L403.456 445.44L400.384 451.584V460.8L404.48 467.968L408.576 471.04H423.936L429.056 466.944L431.104 461.824V450.56L428.032 444.416L421.888 440.32H410.624Z" fill="black"/>
<path d="M124.928 78.8479L139.264 79.8719L152.576 84.9919L160.768 91.1359L167.936 97.2799L175.104 112.64L177.152 124.928L176.128 139.264L171.008 152.576L164.864 160.768L158.72 167.936L145.408 174.08L139.264 176.128L125.952 177.152L113.664 175.104L103.424 171.008L95.232 164.864L88.064 158.72L81.92 145.408L79.872 139.264L78.848 124.928L80.896 112.64L88.064 98.3039L97.28 88.0639L110.592 81.9199L116.736 79.8719L124.928 78.8479ZM125.952 94.2079L116.736 96.2559L106.496 102.4L99.328 110.592L95.232 120.832L94.208 130.048L97.28 141.312L103.424 150.528L110.592 156.672L120.832 160.768L130.048 161.792L139.264 159.744L149.504 153.6L156.672 145.408L160.768 135.168L161.792 125.952L159.744 116.736L153.6 106.496L145.408 99.3279L136.192 95.2319L125.952 94.2079Z" fill="black"/>
<path d="M155.648 312.32H356.352L359.424 315.392L360.448 321.536L357.376 326.656L356.352 327.68H155.648L152.576 324.608L151.552 318.464L154.624 313.344L155.648 312.32Z" fill="black"/>
<path d="M155.648 376.832H356.352L359.424 379.904L360.448 385.024L357.376 390.144L356.352 391.168H155.648L152.576 388.096L151.552 382.976L154.624 377.856L155.648 376.832Z" fill="black"/>
<path d="M155.648 248.832H356.352L359.424 251.904L360.448 257.024L357.376 262.144L356.352 263.168H155.648L152.576 260.096L151.552 254.976L154.624 249.856L155.648 248.832Z" fill="black"/>
<path d="M235.52 184.32H356.352L359.424 187.392L360.448 193.536L357.376 198.656L356.352 199.68H235.52L232.448 196.608L231.424 190.464L234.496 185.344L235.52 184.32Z" fill="black"/>
<path d="M251.904 120.832H356.352L359.424 123.904L360.448 129.024L357.376 134.144L356.352 135.168H251.904L248.832 132.096L247.808 126.976L250.88 121.856L251.904 120.832Z" fill="black"/>
</svg>
