<svg width="512" height="512" viewBox="0 0 512 512" fill="none" xmlns="http://www.w3.org/2000/svg">
<g clip-path="url(#clip0_39_49)">
<path d="M395.264 0H423.936L437.248 2.048L441.344 6.144L442.368 8.192V14.336L438.272 20.48L419.84 38.912L414.72 44.032L388.096 70.656L390.144 79.872L401.408 111.616L440.32 124.928L444.416 122.88L454.656 112.64L459.776 107.52L476.16 91.136L481.28 86.016L495.616 71.68L497.664 70.656H505.856L509.952 73.728L512 84.992V121.856L509.952 134.144L502.784 150.528L495.616 162.816L484.352 175.104L473.088 185.344L462.848 192.512L450.56 198.656L434.176 203.776L422.912 205.824H397.312L390.144 204.8L384 210.944H381.952L379.904 215.04L348.16 246.784L350.208 250.88L367.616 267.264L368.64 269.312V276.48L364.544 282.624L360.448 286.72V293.888L361.472 296.96L370.688 297.984L380.928 289.792H388.096L396.288 296.96L409.6 309.248L423.936 323.584L431.104 331.776L442.368 343.04L450.56 350.208L466.944 366.592L474.112 374.784L484.352 385.024L492.544 392.192L501.76 402.432L507.904 412.672L510.976 422.912L512 427.008V459.776L508.928 471.04L503.808 481.28L496.64 490.496L488.448 498.688L477.184 505.856L467.968 509.952L458.752 512H429.056L416.768 508.928L403.456 501.76L391.168 490.496L375.808 474.112L358.4 457.728L344.064 443.392L336.896 435.2L326.656 424.96L318.464 417.792L301.056 400.384L293.888 392.192L290.816 389.12L289.792 381.952L293.888 375.808L297.984 370.688L299.008 366.592L296.96 361.472L292.864 359.424L286.72 360.448L278.528 367.616L272.384 368.64L266.24 365.568L258.048 357.376L250.88 349.184L247.808 347.136L212.992 381.952H210.944L208.896 386.048L205.824 389.12L206.848 403.456V416.768L203.776 436.224L197.632 453.632L190.464 465.92L182.272 476.16L173.056 486.4L163.84 494.592L150.528 502.784L135.168 508.928L118.784 512H88.064L70.656 508.928L53.248 501.76L43.008 494.592L31.744 485.376L24.576 478.208L17.408 468.992V466.944H15.36L7.168 451.584L2.048 436.224L0 419.84V399.36L2.048 382.976L8.192 366.592L13.312 356.352L22.528 343.04L27.648 338.944L32.768 333.824L41.984 325.632L52.224 318.464L71.68 310.272L91.136 306.176H114.688L122.88 307.2L307.2 122.88L306.176 98.304L308.224 81.92L312.32 66.56L317.44 55.296L322.56 46.08L330.752 35.84L339.968 25.6L343.04 24.576L344.064 21.504L359.424 11.264L374.784 4.096L389.12 1.024L395.264 0ZM398.336 18.432L381.952 22.528L365.568 30.72L349.184 43.008L339.968 54.272L330.752 73.728L326.656 88.064L325.632 97.28V106.496L327.68 119.808V129.024L320.512 137.216L290.816 166.912V168.96L286.72 171.008L205.824 251.904V253.952L201.728 256L132.096 325.632L128 327.68L117.76 326.656L111.616 325.632H93.184L77.824 328.704L61.44 335.872L52.224 340.992L41.984 350.208L30.72 364.544L22.528 380.928L19.456 390.144L17.408 401.408V418.816L20.48 433.152L25.6 447.488L34.816 461.824L41.984 471.04L55.296 481.28L71.68 489.472L82.944 493.568L96.256 495.616H107.52L124.928 492.544L140.288 486.4L154.624 477.184L165.888 467.968L173.056 458.752L182.272 439.296L186.368 424.96L187.392 416.768V404.48L185.344 391.168V384L192.512 375.808L200.704 367.616V365.568L204.8 363.52L221.184 347.136L226.304 342.016L242.688 325.632L247.808 320.512L264.192 304.128L269.312 299.008L285.696 282.624V280.576L289.792 278.528L306.176 262.144L311.296 257.024L327.68 240.64L332.8 235.52L349.184 219.136L354.304 214.016L370.688 197.632L375.808 192.512L382.976 185.344L388.096 184.32L400.384 186.368H421.888L438.272 182.272L459.776 172.032L471.04 161.792L481.28 148.48L489.472 132.096L493.568 118.784L494.592 111.616V100.352L487.424 106.496L468.992 124.928L463.872 130.048L449.536 144.384L442.368 145.408L390.144 128L385.024 122.88L367.616 71.68L368.64 62.464L411.648 19.456V18.432H398.336ZM332.8 261.12L262.144 331.776L264.192 335.872L272.384 344.064L278.528 343.04L284.672 340.992H296.96L307.2 345.088L312.32 350.208L316.416 357.376L317.44 361.472V371.712L314.368 380.928L312.32 384L407.552 479.232L411.648 480.256L419.84 472.064L428.032 464.896L437.248 454.656L461.824 430.08L470.016 422.912L479.232 412.672L481.28 409.6L468.992 396.288L454.656 381.952L446.464 374.784L430.08 357.376L385.024 312.32L380.928 314.368L375.808 316.416H359.424L349.184 311.296L344.064 305.152L340.992 293.888V286.72L344.064 275.456V271.36L333.824 261.12H332.8ZM490.496 428.032L466.944 451.584L459.776 459.776L442.368 476.16L428.032 490.496L430.08 492.544L444.416 494.592L456.704 492.544L467.968 488.448L477.184 482.304L486.4 471.04L492.544 458.752L494.592 448.512V436.224L492.544 428.032H490.496Z" fill="white"/>
<path d="M38.912 0H47.104L56.32 4.096L81.92 18.432L91.136 24.576L108.544 34.816L112.64 39.936L120.832 71.68L135.168 87.04L143.36 94.208L167.936 118.784L175.104 126.976L187.392 138.24L210.944 161.792L218.112 169.984L229.376 180.224L228.352 184.32L218.112 194.56L214.016 193.536L190.464 169.984L182.272 162.816L173.056 153.6L165.888 145.408L147.456 126.976L139.264 119.808L130.048 110.592L122.88 102.4L102.4 81.92L94.208 50.176V48.128L88.064 46.08L81.92 41.984L69.632 35.84L45.056 21.504L39.936 26.624L36.864 29.696H34.816L32.768 33.792L22.528 43.008L24.576 49.152L38.912 73.728L45.056 86.016L49.152 92.16V94.208L57.344 95.232L80.896 101.376L89.088 108.544L109.568 129.024L114.688 133.12V135.168L118.784 137.216L125.952 144.384L133.12 152.576L152.576 172.032L157.696 176.128V178.176L161.792 180.224L168.96 187.392L176.128 195.584L195.584 215.04L193.536 219.136L184.32 228.352L179.2 227.328L164.864 211.968L156.672 204.8L130.048 178.176L122.88 169.984L112.64 160.768L88.064 136.192L80.896 128L72.704 120.832L41.984 112.64L36.864 110.592L28.672 97.28L20.48 82.944L12.288 69.632L2.048 51.2L0 46.08V39.936L4.096 33.792L16.384 20.48L22.528 15.36L27.648 10.24L34.816 2.048L38.912 0Z" fill="white"/>
<path d="M73.7281 357.376H131.072L136.192 360.448L151.552 386.048L157.696 395.264L163.84 405.504V413.696L157.696 423.936L140.288 452.608L134.144 460.8L133.12 461.824H72.7041L66.5601 454.656L49.1521 424.96L44.0321 415.744L43.0081 413.696V405.504L47.1041 397.312L53.2481 386.048H55.2961L57.3441 380.928L69.6321 360.448L73.7281 357.376ZM82.9441 376.832L76.8001 386.048L63.4881 408.576L64.5121 412.672L76.8001 433.152L82.9441 442.368H123.904L139.264 415.744L142.336 410.624L140.288 405.504L131.072 390.144L128 382.976L123.904 376.832H82.9441Z" fill="white"/>
<path d="M343.04 155.648L347.136 156.672L357.376 166.912L355.328 171.008L339.968 186.368L332.8 194.56L316.416 210.944L308.224 218.112L296.96 229.376L289.792 237.568L273.408 253.952L265.216 261.12L254.976 271.36L247.808 279.552L231.424 295.936L223.232 303.104L211.968 314.368L204.8 322.56L188.416 338.944L180.224 346.112L169.984 356.352L165.888 355.328L155.648 345.088L157.696 340.992L172.032 326.656L179.2 318.464L196.608 301.056L204.8 293.888L215.04 283.648L222.208 275.456L239.616 258.048L247.808 250.88L257.024 241.664L264.192 233.472L281.6 216.064L289.792 208.896L300.032 198.656L307.2 190.464L324.608 173.056L332.8 165.888L343.04 155.648Z" fill="white"/>
<path d="M353.28 344.064H359.424L381.952 366.592L389.12 374.784L399.36 385.024L407.552 392.192L423.936 408.576L431.104 416.768L442.368 428.032L441.344 432.128L431.104 442.368L427.008 440.32L411.648 424.96L403.456 417.792L386.048 400.384L378.88 392.192L369.664 382.976L361.472 375.808L344.064 358.4L345.088 353.28L353.28 344.064Z" fill="white"/>
</g>
<defs>
<clipPath id="clip0_39_49">
<rect width="512" height="512" fill="white"/>
</clipPath>
</defs>
</svg>
