<svg width="512" height="512" viewBox="0 0 512 512" fill="none" xmlns="http://www.w3.org/2000/svg">
<path d="M292.864 61.4399H313.344L332.8 64.5119L351.232 71.6799L365.568 80.8959L378.88 92.1599L387.072 102.4L396.288 118.784L401.408 132.096L404.48 146.432L405.504 164.864L413.696 168.96L419.84 177.152L420.864 180.224V190.464L417.792 197.632L413.696 202.752L408.576 204.8V223.232L405.504 231.424L399.36 238.592L393.216 241.664L389.12 242.688L384 261.12L379.904 272.384L372.736 282.624L363.52 292.864L358.4 296.96L354.304 299.008L353.28 317.44L366.592 319.488L433.152 332.8L450.56 337.92L465.92 345.088L475.136 351.232L485.376 360.448L494.592 374.784L499.712 390.144L500.736 397.312V486.4L497.664 496.64L490.496 505.856L484.352 509.952L477.184 512H129.024L119.808 508.928L111.616 501.76L106.496 491.52L105.472 488.448V395.264L109.568 378.88L116.736 365.568L128 353.28L142.336 343.04L158.72 336.896L177.152 331.776L249.856 317.44H252.928V299.008L248.832 296.96L243.712 293.888L233.472 283.648L226.304 272.384L221.184 261.12L216.064 242.688L206.848 238.592L199.68 230.4L197.632 225.28V204.8L192.512 202.752L187.392 196.608L185.344 191.488V179.2L188.416 173.056L195.584 166.912L199.68 164.864L202.752 139.264L206.848 125.952L211.968 113.664L218.112 102.4L229.376 89.0879L245.76 76.7999L261.12 68.6079L277.504 63.4879L292.864 61.4399ZM293.888 78.8479L277.504 81.9199L275.456 82.9439L274.432 99.3279L271.36 104.448H262.144L259.072 101.376L258.048 90.1119L253.952 92.1599L242.688 101.376L233.472 111.616L223.232 129.024L219.136 142.336L217.088 159.744V164.864H387.072V148.48L385.024 135.168L380.928 125.952L373.76 113.664L362.496 100.352L349.184 90.1119H347.136L346.112 101.376L343.04 104.448H332.8L331.776 100.352L330.752 82.9439L320.512 79.8719H311.296L310.272 118.784L306.176 122.88H300.032L295.936 118.784L294.912 78.8479H293.888ZM204.8 181.248L202.752 183.296L203.776 188.416L204.8 189.44H401.408L403.456 187.392L402.432 182.272L401.408 181.248H204.8ZM214.016 206.848V221.184L216.064 224.256L229.376 226.304L232.448 229.376L235.52 248.832L239.616 259.072L244.736 268.288L253.952 279.552L261.12 285.696L275.456 293.888L287.744 297.984L293.888 299.008H312.32L327.68 294.912L342.016 287.744L355.328 275.456L361.472 268.288L369.664 251.904L371.712 242.688L373.76 229.376L376.832 226.304L387.072 225.28L391.168 222.208V206.848H214.016ZM269.312 309.248V326.656L273.408 334.848L281.6 343.04L289.792 349.184L302.08 356.352L312.32 351.232L322.56 344.064L330.752 336.896L335.872 328.704L336.896 324.608V309.248L325.632 312.32L315.392 314.368H290.816L273.408 310.272L269.312 309.248ZM351.232 334.848L343.04 347.136L334.848 356.352L321.536 365.568V367.616L331.776 373.76L337.92 372.736L343.04 368.64L346.112 362.496L357.376 346.112L363.52 337.92L359.424 335.872L351.232 334.848ZM251.904 334.848L242.688 336.896L244.736 340.992L249.856 349.184H251.904L253.952 355.328L264.192 369.664L268.288 372.736L273.408 373.76L284.672 367.616V365.568L271.36 356.352L261.12 346.112L254.976 334.848H251.904ZM381.952 339.968L369.664 358.4L353.28 381.952L344.064 394.24L338.944 401.408L335.872 407.552L325.632 421.888V423.936H323.584L316.416 435.2L312.32 446.464L311.296 451.584V496.64H421.888L422.912 464.896L425.984 461.824H433.152L436.224 463.872L437.248 466.944L438.272 496.64H468.992L477.184 493.568L482.304 487.424L483.328 484.352V398.336L480.256 385.024L476.16 376.832L472.064 372.736L466.944 366.592L454.656 358.4L451.584 359.424L443.392 390.144L439.296 416.768L437.248 441.344L436.224 445.44L429.056 446.464L423.936 444.416L422.912 442.368V425.984L425.984 399.36L429.056 384L431.104 370.688L436.224 351.232L420.864 347.136L385.024 339.968H381.952ZM221.184 339.968L171.008 350.208L168.96 351.232L173.056 367.616L179.2 394.24L182.272 416.768L183.296 429.056L184.32 496.64H294.912V453.632L291.84 441.344L285.696 429.056L275.456 415.744L267.264 403.456L259.072 392.192L256 386.048L246.784 373.76L233.472 354.304L223.232 339.968H221.184ZM151.552 358.4L140.288 365.568L131.072 374.784L125.952 382.976L122.88 396.288V485.376L128 493.568L137.216 496.64H167.936V431.104L164.864 403.456L159.744 378.88L154.624 360.448L153.6 358.4H151.552ZM301.056 376.832L283.648 387.072L278.528 389.12L285.696 400.384L295.936 414.72L302.08 425.984L306.176 420.864L314.368 408.576L326.656 391.168V389.12L304.128 376.832H301.056Z" fill="white"/>
<path d="M150.528 0H193.536L199.68 3.072L204.8 10.24L205.824 14.336V34.816L216.064 37.888L230.4 44.032L237.568 46.08L247.808 36.864L253.952 31.744L256 30.72H268.288L277.504 36.864L279.552 39.936V47.104L275.456 51.2L269.312 52.224L264.192 49.152H260.096L249.856 60.416L241.664 64.512H232.448L209.92 54.272L197.632 50.176L191.488 45.056L188.416 39.936V16.384H157.696L156.672 36.864L153.6 44.032L146.432 50.176L126.976 57.344L112.64 64.512H102.4L95.2321 60.416L87.0401 52.224L83.9681 48.128L79.8721 50.176L61.4401 68.608L63.4881 72.704L75.7761 84.992L77.8241 90.112V99.328L69.6321 116.736L62.4641 135.168L55.2961 141.312L50.1761 143.36L29.6961 144.384V175.104H52.2241L60.4161 180.224L65.5361 190.464L71.6801 206.848L77.8241 220.16V228.352L73.7281 236.544L61.4401 248.832L63.4881 252.928L72.7041 261.12V263.168L76.8001 265.216L82.9441 270.336L92.1601 261.12L94.2081 258.048L100.352 254.976L109.568 253.952L118.784 257.024L136.192 264.192L147.456 268.288L152.576 272.384L155.648 277.504L156.672 281.6V302.08L187.392 301.056L188.416 278.528L192.512 272.384L197.632 268.288L202.752 266.24L208.896 267.264L210.944 268.288L211.968 278.528L208.896 283.648H205.824V304.128L202.752 312.32L196.608 317.44L191.488 319.488H152.576L144.384 315.392L139.264 307.2L138.24 284.672L114.688 275.456L109.568 272.384L105.472 273.408L93.1841 285.696L86.0161 288.768H77.8241L71.6801 285.696L56.3201 271.36L49.1521 263.168L45.0561 259.072L44.0321 254.976V242.688L46.0801 237.568L59.3921 224.256L49.1521 200.704L47.1041 192.512H26.6241L19.4561 189.44L14.3361 184.32L12.2881 180.224V137.216L16.3841 131.072L24.5761 126.976L46.0801 125.952L49.1521 117.76L56.3201 101.376L59.3921 94.208L47.1041 81.92L44.0321 75.776V62.464L46.0801 57.344L50.1761 55.296L52.2241 51.2L69.6321 34.816L75.7761 30.72H88.0641L95.2321 34.816L106.496 46.08L115.712 43.008L130.048 36.864L138.24 33.792L139.264 11.264L143.36 4.096L148.48 1.024L150.528 0Z" fill="white"/>
<path d="M157.696 88.064H187.392L199.68 92.16L202.752 95.232L203.776 102.4L200.704 107.52L198.656 108.544H190.464L179.2 105.472H165.888L153.6 108.544L143.36 113.664L133.12 121.856L126.976 129.024L121.856 140.288L118.784 152.576V165.888L121.856 178.176L129.024 192.512L138.24 201.728L148.48 207.872L158.72 211.968L162.816 212.992L178.176 214.016L182.272 215.04L184.32 219.136V225.28L180.224 230.4H160.768L145.408 226.304L130.048 218.112V216.064L125.952 214.016L115.712 204.8L107.52 191.488L102.4 178.176L100.352 167.936V150.528L104.448 133.12L113.664 116.736L124.928 104.448L133.12 98.304L149.504 90.112L157.696 88.064Z" fill="white"/>
</svg>
