<svg width="44" height="42" viewBox="0 0 44 42" fill="none" xmlns="http://www.w3.org/2000/svg">
<path d="M26.0001 0.0476741H18.0001L11.0001 16.0477L21.0001 15.5477L22.0001 14.0477L34.5001 41.5477H44.0001L26.0001 0.0476741Z" fill="#FF8000"/>
<path d="M31.0001 8.54767L27.5001 0.0476741C41.5001 -0.752326 43.3334 8.71434 42.5001 13.5477H34.5001C35.0543 9.94767 32.3977 8.71434 31.0001 8.54767Z" fill="#FF8000"/>
<path d="M42.0001 34.0477L34.5001 17.5477C36.0001 17.881 39.5001 19.3477 41.5001 22.5477C43.5001 25.7477 42.6667 31.5477 42.0001 34.0477Z" fill="#FF8000"/>
<path d="M30.0001 33.0477L33.5001 41.0477L12.607 41.5477C1.49258 40.3477 1.00006 32.0477 1.50007 27.0477V11.5477C2.30009 0.747668 11.8334 -0.119 16.5001 0.547668L13.0001 8.54767C12.2273 8.71433 10.0001 9.04767 9.50007 11.5477V17.5477C11.5001 17.0477 19.5001 16.5477 22.5001 17.0477L26.0001 25.0477H15.0001C10.0001 25.0477 6.00007 31.0477 14.0001 33.0477H30.0001Z" fill="#FF8000"/>
<path d="M14.0001 32.0477L16.5001 26.0477C14.5001 26.0477 10.5001 26.6477 10.5001 29.0477C10.5001 31.4477 12.8334 32.0477 14.0001 32.0477Z" fill="#FF8000"/>
<path d="M8.00006 41.5477C5.00006 40.5477 3.00006 38.0477 2.00006 36.5477L6.10352e-05 41.5477H8.00006Z" fill="#FF8000"/>
</svg>
